<svg width="40" height="40" viewBox="0 0 40 40" fill="none" xmlns="http://www.w3.org/2000/svg">
<g clip-path="url(#clip0)">
<path d="M11.1309 24.0714C12.1917 24.0714 13.2091 23.65 13.9593 22.8999C14.7094 22.1497 15.1309 21.1323 15.1309 20.0714C15.1309 19.0106 14.7094 17.9931 13.9593 17.243C13.2091 16.4929 12.1917 16.0714 11.1309 16.0714C10.07 16.0714 9.05258 16.4929 8.30243 17.243C7.55229 17.9931 7.13086 19.0106 7.13086 20.0714C7.13086 21.1323 7.55229 22.1497 8.30243 22.8999C9.05258 23.65 10.07 24.0714 11.1309 24.0714V24.0714Z" fill="#CA3156"/>
<path d="M33.2592 35.0714C33.2592 36.5112 32.7587 37.892 31.8677 38.91C30.9768 39.9281 29.7685 40.5 28.5086 40.5H4.7556C3.49566 40.5 2.28733 39.9281 1.39642 38.91C0.505512 37.892 0.00500488 36.5112 0.00500488 35.0714V13.3571C0.00500425 11.9183 0.50486 10.5384 1.39474 9.52048C2.28462 8.50258 3.49174 7.93001 4.75085 7.92857C4.75085 6.48882 5.25136 5.10805 6.14226 4.08999C7.03317 3.07194 8.24151 2.5 9.50144 2.5H33.2544C34.5143 2.5 35.7227 3.07194 36.6136 4.08999C37.5045 5.10805 38.005 6.48882 38.005 7.92857V29.6429C38.005 31.0817 37.5052 32.4616 36.6153 33.4795C35.7254 34.4974 34.5183 35.07 33.2592 35.0714ZM33.2544 5.21429H9.50144C8.87147 5.21429 8.26731 5.50025 7.82185 6.00928C7.3764 6.51831 7.12615 7.2087 7.12615 7.92857H28.5086C29.7685 7.92857 30.9768 8.50051 31.8677 9.51856C32.7587 10.5366 33.2592 11.9174 33.2592 13.3571V32.3571C33.8883 32.3557 34.4913 32.0691 34.9357 31.5602C35.3801 31.0514 35.6297 30.3618 35.6297 29.6429V7.92857C35.6297 7.2087 35.3795 6.51831 34.934 6.00928C34.4885 5.50025 33.8844 5.21429 33.2544 5.21429ZM4.7556 10.6429C4.12563 10.6429 3.52146 10.9288 3.07601 11.4379C2.63056 11.9469 2.3803 12.6373 2.3803 13.3571V35.0714L8.66534 28.682C8.85948 28.461 9.11454 28.3234 9.38728 28.2928C9.66002 28.2621 9.93365 28.3402 10.1618 28.5137L16.4801 33.3261L25.2924 23.2561C25.4686 23.0547 25.6957 22.9216 25.9417 22.8758C26.1876 22.83 26.44 22.8738 26.663 23.001L30.8839 28.2857V13.3571C30.8839 12.6373 30.6336 11.9469 30.1882 11.4379C29.7427 10.9288 29.1385 10.6429 28.5086 10.6429H4.7556Z" fill="white"/>
</g>
<defs>
<clipPath id="clip0">
<rect width="40" height="40" fill="white"/>
</clipPath>
</defs>
</svg>
