<svg width="40" height="40" viewBox="0 0 40 40" fill="none" xmlns="http://www.w3.org/2000/svg">
<g clip-path="url(#clip0)">
<path d="M11.1309 24.0714C12.1918 24.0714 13.2092 23.65 13.9593 22.8999C14.7095 22.1497 15.1309 21.1323 15.1309 20.0714C15.1309 19.0106 14.7095 17.9931 13.9593 17.243C13.2092 16.4929 12.1918 16.0714 11.1309 16.0714C10.07 16.0714 9.05261 16.4929 8.30246 17.243C7.55232 17.9931 7.13089 19.0106 7.13089 20.0714C7.13089 21.1323 7.55232 22.1497 8.30246 22.8999C9.05261 23.65 10.07 24.0714 11.1309 24.0714V24.0714Z" fill="#CA3156"/>
<path d="M33.2592 35.0714C33.2592 36.5112 32.7586 37.892 31.8677 38.91C30.9768 39.9281 29.7685 40.5 28.5086 40.5H4.75559C3.49566 40.5 2.28732 39.9281 1.39641 38.91C0.505505 37.892 0.00499725 36.5112 0.00499725 35.0714V13.3571C0.00499662 11.9183 0.504852 10.5384 1.39473 9.52048C2.28462 8.50258 3.49173 7.93001 4.75084 7.92857C4.75084 6.48882 5.25135 5.10805 6.14226 4.08999C7.03317 3.07194 8.2415 2.5 9.50143 2.5H33.2544C34.5143 2.5 35.7227 3.07194 36.6136 4.08999C37.5045 5.10805 38.005 6.48882 38.005 7.92857V29.6429C38.005 31.0817 37.5051 32.4616 36.6153 33.4795C35.7254 34.4974 34.5183 35.07 33.2592 35.0714ZM33.2544 5.21429H9.50143C8.87147 5.21429 8.2673 5.50025 7.82185 6.00928C7.37639 6.51831 7.12614 7.2087 7.12614 7.92857H28.5086C29.7685 7.92857 30.9768 8.50051 31.8677 9.51856C32.7586 10.5366 33.2592 11.9174 33.2592 13.3571V32.3571C33.8883 32.3557 34.4912 32.0691 34.9357 31.5602C35.3801 31.0514 35.6297 30.3618 35.6297 29.6429V7.92857C35.6297 7.2087 35.3794 6.51831 34.934 6.00928C34.4885 5.50025 33.8844 5.21429 33.2544 5.21429ZM4.75559 10.6429C4.12562 10.6429 3.52146 10.9288 3.076 11.4379C2.63055 11.9469 2.38029 12.6373 2.38029 13.3571V35.0714L8.66533 28.682C8.85947 28.461 9.11453 28.3234 9.38727 28.2928C9.66001 28.2621 9.93364 28.3402 10.1618 28.5137L16.4801 33.3261L25.2924 23.2561C25.4685 23.0547 25.6957 22.9216 25.9416 22.8758C26.1876 22.83 26.44 22.8738 26.663 23.001L30.8839 28.2857V13.3571C30.8839 12.6373 30.6336 11.9469 30.1881 11.4379C29.7427 10.9288 29.1385 10.6429 28.5086 10.6429H4.75559Z" fill="#3859B7"/>
</g>
<defs>
<clipPath id="clip0">
<rect width="40" height="40" fill="white"/>
</clipPath>
</defs>
</svg>
