<svg width="200" height="200" viewBox="0 0 200 200" fill="none" xmlns="http://www.w3.org/2000/svg">
<path d="M5.00009 6.89291C6.04551 6.89291 6.893 6.04542 6.893 5C6.893 3.95457 6.04551 3.10709 5.00009 3.10709C3.95466 3.10709 3.10718 3.95457 3.10718 5C3.10718 6.04542 3.95466 6.89291 5.00009 6.89291Z" fill="#223AA3" fill-opacity="0.05"/>
<path d="M4.99989 16.5587C5.86076 16.5587 6.55862 15.8609 6.55862 15C6.55862 14.1391 5.86076 13.4413 4.99989 13.4413C4.13903 13.4413 3.44116 14.1391 3.44116 15C3.44116 15.8609 4.13903 16.5587 4.99989 16.5587Z" fill="#223AA3" fill-opacity="0.05"/>
<path d="M4.99995 26.3977C5.77186 26.3977 6.39761 25.7719 6.39761 25C6.39761 24.2281 5.77186 23.6023 4.99995 23.6023C4.22805 23.6023 3.60229 24.2281 3.60229 25C3.60229 25.7719 4.22805 26.3977 4.99995 26.3977Z" fill="#223AA3" fill-opacity="0.05"/>
<path d="M5.00003 36.4556C5.80393 36.4556 6.45563 35.8039 6.45563 35C6.45563 34.1961 5.80393 33.5444 5.00003 33.5444C4.19613 33.5444 3.54443 34.1961 3.54443 35C3.54443 35.8039 4.19613 36.4556 5.00003 36.4556Z" fill="#223AA3" fill-opacity="0.05"/>
<path d="M4.99993 46.7094C5.94401 46.7094 6.70934 45.9441 6.70934 45C6.70934 44.0559 5.94401 43.2906 4.99993 43.2906C4.05585 43.2906 3.29053 44.0559 3.29053 45C3.29053 45.9441 4.05585 46.7094 4.99993 46.7094Z" fill="#223AA3" fill-opacity="0.05"/>
<path d="M5.00003 57.0857C6.15195 57.0857 7.08576 56.1519 7.08576 55C7.08576 53.8481 6.15195 52.9143 5.00003 52.9143C3.84812 52.9143 2.91431 53.8481 2.91431 55C2.91431 56.1519 3.84812 57.0857 5.00003 57.0857Z" fill="#223AA3" fill-opacity="0.05"/>
<path d="M5.00012 67.4894C6.37496 67.4894 7.48949 66.3748 7.48949 65C7.48949 63.6252 6.37496 62.5106 5.00012 62.5106C3.62527 62.5106 2.51074 63.6252 2.51074 65C2.51074 66.3748 3.62527 67.4894 5.00012 67.4894Z" fill="#223AA3" fill-opacity="0.05"/>
<path d="M4.99991 77.8383C6.56746 77.8383 7.83821 76.5675 7.83821 75C7.83821 73.4325 6.56746 72.1617 4.99991 72.1617C3.43237 72.1617 2.16162 73.4325 2.16162 75C2.16162 76.5675 3.43237 77.8383 4.99991 77.8383Z" fill="#223AA3" fill-opacity="0.05"/>
<path d="M5.00005 88.0962C6.71005 88.0962 8.09628 86.71 8.09628 85C8.09628 83.29 6.71005 81.9038 5.00005 81.9038C3.29004 81.9038 1.90381 83.29 1.90381 85C1.90381 86.71 3.29004 88.0962 5.00005 88.0962Z" fill="#223AA3" fill-opacity="0.05"/>
<path d="M5.00007 98.2618C6.80151 98.2618 8.26186 96.8014 8.26186 95C8.26186 93.1986 6.80151 91.7382 5.00007 91.7382C3.19863 91.7382 1.73828 93.1986 1.73828 95C1.73828 96.8014 3.19863 98.2618 5.00007 98.2618Z" fill="#223AA3" fill-opacity="0.05"/>
<path d="M4.99997 108.289C6.81632 108.289 8.28876 106.816 8.28876 105C8.28876 103.184 6.81632 101.711 4.99997 101.711C3.18362 101.711 1.71118 103.184 1.71118 105C1.71118 106.816 3.18362 108.289 4.99997 108.289Z" fill="#223AA3" fill-opacity="0.05"/>
<path d="M5.00005 118.111C6.71842 118.111 8.11143 116.718 8.11143 115C8.11143 113.282 6.71842 111.889 5.00005 111.889C3.28168 111.889 1.88867 113.282 1.88867 115C1.88867 116.718 3.28168 118.111 5.00005 118.111Z" fill="#223AA3" fill-opacity="0.05"/>
<path d="M5.00008 127.748C6.51769 127.748 7.74795 126.518 7.74795 125C7.74795 123.482 6.51769 122.252 5.00008 122.252C3.48246 122.252 2.2522 123.482 2.2522 125C2.2522 126.518 3.48246 127.748 5.00008 127.748Z" fill="#223AA3" fill-opacity="0.05"/>
<path d="M5.00009 137.307C6.2742 137.307 7.30707 136.274 7.30707 135C7.30707 133.726 6.2742 132.693 5.00009 132.693C3.72598 132.693 2.69312 133.726 2.69312 135C2.69312 136.274 3.72598 137.307 5.00009 137.307Z" fill="#223AA3" fill-opacity="0.05"/>
<path d="M4.99988 146.928C6.06474 146.928 6.92798 146.065 6.92798 145C6.92798 143.935 6.06474 143.072 4.99988 143.072C3.93502 143.072 3.07178 143.935 3.07178 145C3.07178 146.065 3.93502 146.928 4.99988 146.928Z" fill="#223AA3" fill-opacity="0.05"/>
<path d="M5.00002 156.724C5.9521 156.724 6.72392 155.952 6.72392 155C6.72392 154.048 5.9521 153.276 5.00002 153.276C4.04794 153.276 3.27612 154.048 3.27612 155C3.27612 155.952 4.04794 156.724 5.00002 156.724Z" fill="#223AA3" fill-opacity="0.05"/>
<path d="M4.99999 166.761C5.97282 166.761 6.76146 165.973 6.76146 165C6.76146 164.027 5.97282 163.239 4.99999 163.239C4.02716 163.239 3.23853 164.027 3.23853 165C3.23853 165.973 4.02716 166.761 4.99999 166.761Z" fill="#223AA3" fill-opacity="0.05"/>
<path d="M5.00002 177.01C6.10986 177.01 7.00956 176.11 7.00956 175C7.00956 173.89 6.10986 172.99 5.00002 172.99C3.89018 172.99 2.99048 173.89 2.99048 175C2.99048 176.11 3.89018 177.01 5.00002 177.01Z" fill="#223AA3" fill-opacity="0.05"/>
<path d="M5.00003 187.34C6.29217 187.34 7.33966 186.292 7.33966 185C7.33966 183.708 6.29217 182.66 5.00003 182.66C3.70789 182.66 2.6604 183.708 2.6604 185C2.6604 186.292 3.70789 187.34 5.00003 187.34Z" fill="#223AA3" fill-opacity="0.05"/>
<path d="M4.99992 197.621C6.44733 197.621 7.62069 196.447 7.62069 195C7.62069 193.553 6.44733 192.379 4.99992 192.379C3.55251 192.379 2.37915 193.553 2.37915 195C2.37915 196.447 3.55251 197.621 4.99992 197.621Z" fill="#223AA3" fill-opacity="0.05"/>
<path d="M14.9999 6.96136C16.0832 6.96136 16.9613 6.08323 16.9613 5C16.9613 3.91677 16.0832 3.03864 14.9999 3.03864C13.9167 3.03864 13.0386 3.91677 13.0386 5C13.0386 6.08323 13.9167 6.96136 14.9999 6.96136Z" fill="#223AA3" fill-opacity="0.05"/>
<path d="M15 16.6924C15.9347 16.6924 16.6925 15.9347 16.6925 15C16.6925 14.0653 15.9347 13.3076 15 13.3076C14.0653 13.3076 13.3076 14.0653 13.3076 15C13.3076 15.9347 14.0653 16.6924 15 16.6924Z" fill="#223AA3" fill-opacity="0.05"/>
<path d="M15 26.5732C15.8689 26.5732 16.5732 25.8689 16.5732 25C16.5732 24.1311 15.8689 23.4268 15 23.4268C14.1311 23.4268 13.4268 24.1311 13.4268 25C13.4268 25.8689 14.1311 26.5732 15 26.5732Z" fill="#223AA3" fill-opacity="0.05"/>
<path d="M14.9999 36.6554C15.9142 36.6554 16.6554 35.9143 16.6554 35C16.6554 34.0857 15.9142 33.3446 14.9999 33.3446C14.0856 33.3446 13.3445 34.0857 13.3445 35C13.3445 35.9143 14.0856 36.6554 14.9999 36.6554Z" fill="#223AA3" fill-opacity="0.05"/>
<path d="M15 46.9287C16.0652 46.9287 16.9288 46.0652 16.9288 45C16.9288 43.9348 16.0652 43.0713 15 43.0713C13.9348 43.0713 13.0713 43.9348 13.0713 45C13.0713 46.0652 13.9348 46.9287 15 46.9287Z" fill="#223AA3" fill-opacity="0.05"/>
<path d="M15.0001 57.3223C16.2826 57.3223 17.3224 56.2826 17.3224 55C17.3224 53.7174 16.2826 52.6777 15.0001 52.6777C13.7175 52.6777 12.6777 53.7174 12.6777 55C12.6777 56.2826 13.7175 57.3223 15.0001 57.3223Z" fill="#223AA3" fill-opacity="0.05"/>
<path d="M14.9999 67.7365C16.5112 67.7365 17.7364 66.5113 17.7364 65C17.7364 63.4887 16.5112 62.2635 14.9999 62.2635C13.4886 62.2635 12.2634 63.4887 12.2634 65C12.2634 66.5113 13.4886 67.7365 14.9999 67.7365Z" fill="#223AA3" fill-opacity="0.05"/>
<path d="M14.9999 78.0827C16.7024 78.0827 18.0826 76.7025 18.0826 75C18.0826 73.2975 16.7024 71.9173 14.9999 71.9173C13.2974 71.9173 11.9172 73.2975 11.9172 75C11.9172 76.7025 13.2974 78.0827 14.9999 78.0827Z" fill="#223AA3" fill-opacity="0.05"/>
<path d="M15.0001 88.3148C16.8308 88.3148 18.3149 86.8307 18.3149 85C18.3149 83.1693 16.8308 81.6852 15.0001 81.6852C13.1694 81.6852 11.6853 83.1693 11.6853 85C11.6853 86.8307 13.1694 88.3148 15.0001 88.3148Z" fill="#223AA3" fill-opacity="0.05"/>
<path d="M15.0001 98.4095C16.8831 98.4095 18.4095 96.883 18.4095 95C18.4095 93.117 16.8831 91.5905 15.0001 91.5905C13.1171 91.5905 11.5906 93.117 11.5906 95C11.5906 96.883 13.1171 98.4095 15.0001 98.4095Z" fill="#223AA3" fill-opacity="0.05"/>
<path d="M15 108.301C16.8229 108.301 18.3006 106.823 18.3006 105C18.3006 103.177 16.8229 101.699 15 101.699C13.1772 101.699 11.6995 103.177 11.6995 105C11.6995 106.823 13.1772 108.301 15 108.301Z" fill="#223AA3" fill-opacity="0.05"/>
<path d="M14.9999 117.945C16.6262 117.945 17.9446 116.626 17.9446 115C17.9446 113.374 16.6262 112.055 14.9999 112.055C13.3736 112.055 12.0552 113.374 12.0552 115C12.0552 116.626 13.3736 117.945 14.9999 117.945Z" fill="#223AA3" fill-opacity="0.05"/>
<path d="M15 127.415C16.3336 127.415 17.4147 126.334 17.4147 125C17.4147 123.666 16.3336 122.585 15 122.585C13.6663 122.585 12.5852 123.666 12.5852 125C12.5852 126.334 13.6663 127.415 15 127.415Z" fill="#223AA3" fill-opacity="0.05"/>
<path d="M14.9999 136.88C16.0383 136.88 16.88 136.038 16.88 135C16.88 133.962 16.0383 133.12 14.9999 133.12C13.9616 133.12 13.1199 133.962 13.1199 135C13.1199 136.038 13.9616 136.88 14.9999 136.88Z" fill="#223AA3" fill-opacity="0.05"/>
<path d="M14.9999 146.518C15.8385 146.518 16.5182 145.839 16.5182 145C16.5182 144.161 15.8385 143.482 14.9999 143.482C14.1614 143.482 13.4817 144.161 13.4817 145C13.4817 145.839 14.1614 146.518 14.9999 146.518Z" fill="#223AA3" fill-opacity="0.05"/>
<path d="M15 156.426C15.7876 156.426 16.4262 155.788 16.4262 155C16.4262 154.212 15.7876 153.574 15 153.574C14.2123 153.574 13.5737 154.212 13.5737 155C13.5737 155.788 14.2123 156.426 15 156.426Z" fill="#223AA3" fill-opacity="0.05"/>
<path d="M14.9999 166.601C15.8841 166.601 16.6009 165.884 16.6009 165C16.6009 164.116 15.8841 163.399 14.9999 163.399C14.1157 163.399 13.3989 164.116 13.3989 165C13.3989 165.884 14.1157 166.601 14.9999 166.601Z" fill="#223AA3" fill-opacity="0.05"/>
<path d="M15 176.971C16.0884 176.971 16.9707 176.088 16.9707 175C16.9707 173.912 16.0884 173.029 15 173.029C13.9116 173.029 13.0293 173.912 13.0293 175C13.0293 176.088 13.9116 176.971 15 176.971Z" fill="#223AA3" fill-opacity="0.05"/>
<path d="M14.9999 187.405C16.3284 187.405 17.4053 186.328 17.4053 185C17.4053 183.672 16.3284 182.595 14.9999 182.595C13.6714 182.595 12.5945 183.672 12.5945 185C12.5945 186.328 13.6714 187.405 14.9999 187.405Z" fill="#223AA3" fill-opacity="0.05"/>
<path d="M14.9999 197.78C16.5353 197.78 17.7801 196.535 17.7801 195C17.7801 193.465 16.5353 192.22 14.9999 192.22C13.4645 192.22 12.2197 193.465 12.2197 195C12.2197 196.535 13.4645 197.78 14.9999 197.78Z" fill="#223AA3" fill-opacity="0.05"/>
<path d="M25.0001 7.05798C26.1367 7.05798 27.0581 6.13659 27.0581 5C27.0581 3.86341 26.1367 2.94202 25.0001 2.94202C23.8635 2.94202 22.9421 3.86341 22.9421 5C22.9421 6.13659 23.8635 7.05798 25.0001 7.05798Z" fill="#223AA3" fill-opacity="0.05"/>
<path d="M24.9999 16.8292C26.0102 16.8292 26.8291 16.0103 26.8291 15C26.8291 13.9897 26.0102 13.1708 24.9999 13.1708C23.9896 13.1708 23.1707 13.9897 23.1707 15C23.1707 16.0103 23.9896 16.8292 24.9999 16.8292Z" fill="#223AA3" fill-opacity="0.05"/>
<path d="M25 26.718C25.9488 26.718 26.7179 25.9488 26.7179 25C26.7179 24.0512 25.9488 23.282 25 23.282C24.0511 23.282 23.282 24.0512 23.282 25C23.282 25.9488 24.0511 26.718 25 26.718Z" fill="#223AA3" fill-opacity="0.05"/>
<path d="M25 36.7912C25.9892 36.7912 26.7912 35.9893 26.7912 35C26.7912 34.0107 25.9892 33.2088 25 33.2088C24.0107 33.2088 23.2087 34.0107 23.2087 35C23.2087 35.9893 24.0107 36.7912 25 36.7912Z" fill="#223AA3" fill-opacity="0.05"/>
<path d="M25.0001 47.0489C26.1317 47.0489 27.049 46.1316 27.049 45C27.049 43.8684 26.1317 42.9511 25.0001 42.9511C23.8685 42.9511 22.9512 43.8684 22.9512 45C22.9512 46.1316 23.8685 47.0489 25.0001 47.0489Z" fill="#223AA3" fill-opacity="0.05"/>
<path d="M25 57.4321C26.3432 57.4321 27.4321 56.3432 27.4321 55C27.4321 53.6568 26.3432 52.5679 25 52.5679C23.6568 52.5679 22.5679 53.6568 22.5679 55C22.5679 56.3432 23.6568 57.4321 25 57.4321Z" fill="#223AA3" fill-opacity="0.05"/>
<path d="M24.9999 67.849C26.5734 67.849 27.8489 66.5735 27.8489 65C27.8489 63.4265 26.5734 62.151 24.9999 62.151C23.4264 62.151 22.1509 63.4265 22.1509 65C22.1509 66.5735 23.4264 67.849 24.9999 67.849Z" fill="#223AA3" fill-opacity="0.05"/>
<path d="M24.9999 78.2123C26.774 78.2123 28.2122 76.7741 28.2122 75C28.2122 73.2259 26.774 71.7877 24.9999 71.7877C23.2258 71.7877 21.7876 73.2259 21.7876 75C21.7876 76.7741 23.2258 78.2123 24.9999 78.2123Z" fill="#223AA3" fill-opacity="0.05"/>
<path d="M24.9999 88.4625C26.9122 88.4625 28.4624 86.9123 28.4624 85C28.4624 83.0877 26.9122 81.5375 24.9999 81.5375C23.0876 81.5375 21.5374 83.0877 21.5374 85C21.5374 86.9123 23.0876 88.4625 24.9999 88.4625Z" fill="#223AA3" fill-opacity="0.05"/>
<path d="M25.0001 98.5423C26.9565 98.5423 28.5424 96.9564 28.5424 95C28.5424 93.0436 26.9565 91.4577 25.0001 91.4577C23.0437 91.4577 21.4578 93.0436 21.4578 95C21.4578 96.9564 23.0437 98.5423 25.0001 98.5423Z" fill="#223AA3" fill-opacity="0.05"/>
<path d="M25 108.368C26.86 108.368 28.3679 106.86 28.3679 105C28.3679 103.14 26.86 101.632 25 101.632C23.1399 101.632 21.6321 103.14 21.6321 105C21.6321 106.86 23.1399 108.368 25 108.368Z" fill="#223AA3" fill-opacity="0.05"/>
<path d="M25.0001 117.91C26.6071 117.91 27.9099 116.607 27.9099 115C27.9099 113.393 26.6071 112.09 25.0001 112.09C23.3931 112.09 22.0903 113.393 22.0903 115C22.0903 116.607 23.3931 117.91 25.0001 117.91Z" fill="#223AA3" fill-opacity="0.05"/>
<path d="M25.0001 127.275C26.2564 127.275 27.2748 126.256 27.2748 125C27.2748 123.744 26.2564 122.725 25.0001 122.725C23.7438 122.725 22.7253 123.744 22.7253 125C22.7253 126.256 23.7438 127.275 25.0001 127.275Z" fill="#223AA3" fill-opacity="0.05"/>
<path d="M25.0001 136.671C25.9228 136.671 26.6709 135.923 26.6709 135C26.6709 134.077 25.9228 133.329 25.0001 133.329C24.0774 133.329 23.3293 134.077 23.3293 135C23.3293 135.923 24.0774 136.671 25.0001 136.671Z" fill="#223AA3" fill-opacity="0.05"/>
<path d="M25.0001 146.303C25.7197 146.303 26.3031 145.72 26.3031 145C26.3031 144.28 25.7197 143.697 25.0001 143.697C24.2804 143.697 23.697 144.28 23.697 145C23.697 145.72 24.2804 146.303 25.0001 146.303Z" fill="#223AA3" fill-opacity="0.05"/>
<path d="M25.0001 156.267C25.7 156.267 26.2675 155.7 26.2675 155C26.2675 154.3 25.7 153.733 25.0001 153.733C24.3001 153.733 23.7327 154.3 23.7327 155C23.7327 155.7 24.3001 156.267 25.0001 156.267Z" fill="#223AA3" fill-opacity="0.05"/>
<path d="M24.9999 166.516C25.8369 166.516 26.5154 165.837 26.5154 165C26.5154 164.163 25.8369 163.484 24.9999 163.484C24.1629 163.484 23.4844 164.163 23.4844 165C23.4844 165.837 24.1629 166.516 24.9999 166.516Z" fill="#223AA3" fill-opacity="0.05"/>
<path d="M25.0001 176.942C26.0729 176.942 26.9426 176.073 26.9426 175C26.9426 173.927 26.0729 173.058 25.0001 173.058C23.9273 173.058 23.0576 173.927 23.0576 175C23.0576 176.073 23.9273 176.942 25.0001 176.942Z" fill="#223AA3" fill-opacity="0.05"/>
<path d="M25 187.434C26.3443 187.434 27.4341 186.344 27.4341 185C27.4341 183.656 26.3443 182.566 25 182.566C23.6557 182.566 22.5659 183.656 22.5659 185C22.5659 186.344 23.6557 187.434 25 187.434Z" fill="#223AA3" fill-opacity="0.05"/>
<path d="M25.0001 197.861C26.58 197.861 27.8607 196.58 27.8607 195C27.8607 193.42 26.58 192.139 25.0001 192.139C23.4202 192.139 22.1394 193.42 22.1394 195C22.1394 196.58 23.4202 197.861 25.0001 197.861Z" fill="#223AA3" fill-opacity="0.05"/>
<path d="M34.9999 7.18984C36.2093 7.18984 37.1897 6.20942 37.1897 5C37.1897 3.79059 36.2093 2.81017 34.9999 2.81017C33.7905 2.81017 32.8101 3.79059 32.8101 5C32.8101 6.20942 33.7905 7.18984 34.9999 7.18984Z" fill="#223AA3" fill-opacity="0.05"/>
<path d="M35 16.9582C36.0815 16.9582 36.9582 16.0815 36.9582 15C36.9582 13.9185 36.0815 13.0418 35 13.0418C33.9185 13.0418 33.0417 13.9185 33.0417 15C33.0417 16.0815 33.9185 16.9582 35 16.9582Z" fill="#223AA3" fill-opacity="0.05"/>
<path d="M35 26.7947C35.9912 26.7947 36.7947 25.9912 36.7947 25C36.7947 24.0088 35.9912 23.2053 35 23.2053C34.0088 23.2053 33.2053 24.0088 33.2053 25C33.2053 25.9912 34.0088 26.7947 35 26.7947Z" fill="#223AA3" fill-opacity="0.05"/>
<path d="M35 36.7984C35.9932 36.7984 36.7984 35.9932 36.7984 35C36.7984 34.0068 35.9932 33.2017 35 33.2017C34.0068 33.2017 33.2017 34.0068 33.2017 35C33.2017 35.9932 34.0068 36.7984 35 36.7984Z" fill="#223AA3" fill-opacity="0.05"/>
<path d="M35 46.9976C36.1032 46.9976 36.9976 46.1032 36.9976 45C36.9976 43.8968 36.1032 43.0024 35 43.0024C33.8968 43.0024 33.0024 43.8968 33.0024 45C33.0024 46.1032 33.8968 46.9976 35 46.9976Z" fill="#223AA3" fill-opacity="0.05"/>
<path d="M35 57.3462C36.2957 57.3462 37.3461 56.2958 37.3461 55C37.3461 53.7042 36.2957 52.6538 35 52.6538C33.7042 52.6538 32.6538 53.7042 32.6538 55C32.6538 56.2958 33.7042 57.3462 35 57.3462Z" fill="#223AA3" fill-opacity="0.05"/>
<path d="M35 67.7671C36.5283 67.7671 37.7671 66.5282 37.7671 65C37.7671 63.4718 36.5283 62.2329 35 62.2329C33.4718 62.2329 32.2329 63.4718 32.2329 65C32.2329 66.5282 33.4718 67.7671 35 67.7671Z" fill="#223AA3" fill-opacity="0.05"/>
<path d="M34.9999 78.1759C36.7539 78.1759 38.1759 76.754 38.1759 75C38.1759 73.246 36.7539 71.8241 34.9999 71.8241C33.2459 71.8241 31.824 73.246 31.824 75C31.824 76.754 33.2459 78.1759 34.9999 78.1759Z" fill="#223AA3" fill-opacity="0.05"/>
<path d="M34.9999 88.4887C36.9267 88.4887 38.4886 86.9267 38.4886 85C38.4886 83.0733 36.9267 81.5113 34.9999 81.5113C33.0732 81.5113 31.5112 83.0733 31.5112 85C31.5112 86.9267 33.0732 88.4887 34.9999 88.4887Z" fill="#223AA3" fill-opacity="0.05"/>
<path d="M35 98.6145C36.9962 98.6145 38.6144 96.9962 38.6144 95C38.6144 93.0038 36.9962 91.3855 35 91.3855C33.0037 91.3855 31.3855 93.0038 31.3855 95C31.3855 96.9962 33.0037 98.6145 35 98.6145Z" fill="#223AA3" fill-opacity="0.05"/>
<path d="M34.9999 108.458C36.9097 108.458 38.4579 106.91 38.4579 105C38.4579 103.09 36.9097 101.542 34.9999 101.542C33.0902 101.542 31.542 103.09 31.542 105C31.542 106.91 33.0902 108.458 34.9999 108.458Z" fill="#223AA3" fill-opacity="0.05"/>
<path d="M35.0001 117.99C36.6513 117.99 37.9899 116.651 37.9899 115C37.9899 113.349 36.6513 112.01 35.0001 112.01C33.3488 112.01 32.0103 113.349 32.0103 115C32.0103 116.651 33.3488 117.99 35.0001 117.99Z" fill="#223AA3" fill-opacity="0.05"/>
<path d="M35 127.325C36.2843 127.325 37.3254 126.284 37.3254 125C37.3254 123.716 36.2843 122.675 35 122.675C33.7157 122.675 32.6746 123.716 32.6746 125C32.6746 126.284 33.7157 127.325 35 127.325Z" fill="#223AA3" fill-opacity="0.05"/>
<path d="M35 136.686C35.9308 136.686 36.6855 135.931 36.6855 135C36.6855 134.069 35.9308 133.314 35 133.314C34.0691 133.314 33.3145 134.069 33.3145 135C33.3145 135.931 34.0691 136.686 35 136.686Z" fill="#223AA3" fill-opacity="0.05"/>
<path d="M35.0001 146.288C35.7117 146.288 36.2885 145.712 36.2885 145C36.2885 144.288 35.7117 143.712 35.0001 143.712C34.2885 143.712 33.7117 144.288 33.7117 145C33.7117 145.712 34.2885 146.288 35.0001 146.288Z" fill="#223AA3" fill-opacity="0.05"/>
<path d="M34.9999 156.24C35.6848 156.24 36.24 155.685 36.24 155C36.24 154.315 35.6848 153.76 34.9999 153.76C34.315 153.76 33.7598 154.315 33.7598 155C33.7598 155.685 34.315 156.24 34.9999 156.24Z" fill="#223AA3" fill-opacity="0.05"/>
<path d="M34.9999 166.495C35.8256 166.495 36.4949 165.826 36.4949 165C36.4949 164.174 35.8256 163.505 34.9999 163.505C34.1742 163.505 33.5049 164.174 33.5049 165C33.5049 165.826 34.1742 166.495 34.9999 166.495Z" fill="#223AA3" fill-opacity="0.05"/>
<path d="M34.9999 176.935C36.0687 176.935 36.9351 176.069 36.9351 175C36.9351 173.931 36.0687 173.065 34.9999 173.065C33.9311 173.065 33.0647 173.931 33.0647 175C33.0647 176.069 33.9311 176.935 34.9999 176.935Z" fill="#223AA3" fill-opacity="0.05"/>
<path d="M35 187.441C36.3484 187.441 37.4415 186.348 37.4415 185C37.4415 183.652 36.3484 182.559 35 182.559C33.6517 182.559 32.5586 183.652 32.5586 185C32.5586 186.348 33.6517 187.441 35 187.441Z" fill="#223AA3" fill-opacity="0.05"/>
<path d="M35.0001 197.881C36.5913 197.881 37.8813 196.591 37.8813 195C37.8813 193.409 36.5913 192.119 35.0001 192.119C33.4089 192.119 32.1189 193.409 32.1189 195C32.1189 196.591 33.4089 197.881 35.0001 197.881Z" fill="#223AA3" fill-opacity="0.05"/>
<path d="M45 7.35548C46.3009 7.35548 47.3555 6.3009 47.3555 5C47.3555 3.6991 46.3009 2.64452 45 2.64452C43.6991 2.64452 42.6445 3.6991 42.6445 5C42.6445 6.3009 43.6991 7.35548 45 7.35548Z" fill="#223AA3" fill-opacity="0.05"/>
<path d="M45.0001 17.0797C46.1486 17.0797 47.0797 16.1486 47.0797 15C47.0797 13.8514 46.1486 12.9203 45.0001 12.9203C43.8515 12.9203 42.9204 13.8514 42.9204 15C42.9204 16.1486 43.8515 17.0797 45.0001 17.0797Z" fill="#223AA3" fill-opacity="0.05"/>
<path d="M45.0001 26.807C45.998 26.807 46.807 25.998 46.807 25C46.807 24.002 45.998 23.193 45.0001 23.193C44.0021 23.193 43.1931 24.002 43.1931 25C43.1931 25.998 44.0021 26.807 45.0001 26.807Z" fill="#223AA3" fill-opacity="0.05"/>
<path d="M45 36.6765C45.9259 36.6765 46.6764 35.9259 46.6764 35C46.6764 34.0741 45.9259 33.3235 45 33.3235C44.0741 33.3235 43.3235 34.0741 43.3235 35C43.3235 35.9259 44.0741 36.6765 45 36.6765Z" fill="#223AA3" fill-opacity="0.05"/>
<path d="M45.0001 46.7645C45.9746 46.7645 46.7646 45.9745 46.7646 45C46.7646 44.0255 45.9746 43.2355 45.0001 43.2355C44.0256 43.2355 43.2356 44.0255 43.2356 45C43.2356 45.9745 44.0256 46.7645 45.0001 46.7645Z" fill="#223AA3" fill-opacity="0.05"/>
<path d="M45 57.0524C46.1335 57.0524 47.0524 56.1335 47.0524 55C47.0524 53.8665 46.1335 52.9476 45 52.9476C43.8664 52.9476 42.9475 53.8665 42.9475 55C42.9475 56.1335 43.8664 57.0524 45 57.0524Z" fill="#223AA3" fill-opacity="0.05"/>
<path d="M45 67.4729C46.3658 67.4729 47.473 66.3658 47.473 65C47.473 63.6342 46.3658 62.5271 45 62.5271C43.6343 62.5271 42.5271 63.6342 42.5271 65C42.5271 66.3658 43.6343 67.4729 45 67.4729Z" fill="#223AA3" fill-opacity="0.05"/>
<path d="M45.0001 77.9395C46.6235 77.9395 47.9396 76.6235 47.9396 75C47.9396 73.3765 46.6235 72.0605 45.0001 72.0605C43.3766 72.0605 42.0605 73.3765 42.0605 75C42.0605 76.6235 43.3766 77.9395 45.0001 77.9395Z" fill="#223AA3" fill-opacity="0.05"/>
<path d="M44.9999 88.3361C46.8424 88.3361 48.336 86.8425 48.336 85C48.336 83.1575 46.8424 81.6639 44.9999 81.6639C43.1574 81.6639 41.6638 83.1575 41.6638 85C41.6638 86.8425 43.1574 88.3361 44.9999 88.3361Z" fill="#223AA3" fill-opacity="0.05"/>
<path d="M45.0001 98.5511C46.9613 98.5511 48.5511 96.9612 48.5511 95C48.5511 93.0388 46.9613 91.4489 45.0001 91.4489C43.0388 91.4489 41.449 93.0388 41.449 95C41.449 96.9612 43.0388 98.5511 45.0001 98.5511Z" fill="#223AA3" fill-opacity="0.05"/>
<path d="M44.9999 108.481C46.9222 108.481 48.4805 106.922 48.4805 105C48.4805 103.078 46.9222 101.519 44.9999 101.519C43.0776 101.519 41.5193 103.078 41.5193 105C41.5193 106.922 43.0776 108.481 44.9999 108.481Z" fill="#223AA3" fill-opacity="0.05"/>
<path d="M45 118.083C46.7027 118.083 48.0831 116.703 48.0831 115C48.0831 113.297 46.7027 111.917 45 111.917C43.2973 111.917 41.917 113.297 41.917 115C41.917 116.703 43.2973 118.083 45 118.083Z" fill="#223AA3" fill-opacity="0.05"/>
<path d="M44.9999 127.46C46.3585 127.46 47.4598 126.359 47.4598 125C47.4598 123.641 46.3585 122.54 44.9999 122.54C43.6414 122.54 42.54 123.641 42.54 125C42.54 126.359 43.6414 127.46 44.9999 127.46Z" fill="#223AA3" fill-opacity="0.05"/>
<path d="M44.9999 136.824C46.007 136.824 46.8235 136.007 46.8235 135C46.8235 133.993 46.007 133.176 44.9999 133.176C43.9927 133.176 43.1763 133.993 43.1763 135C43.1763 136.007 43.9927 136.824 44.9999 136.824Z" fill="#223AA3" fill-opacity="0.05"/>
<path d="M45 146.398C45.7721 146.398 46.398 145.772 46.398 145C46.398 144.228 45.7721 143.602 45 143.602C44.228 143.602 43.6021 144.228 43.6021 145C43.6021 145.772 44.228 146.398 45 146.398Z" fill="#223AA3" fill-opacity="0.05"/>
<path d="M45 156.311C45.724 156.311 46.311 155.724 46.311 155C46.311 154.276 45.724 153.689 45 153.689C44.2759 153.689 43.689 154.276 43.689 155C43.689 155.724 44.2759 156.311 45 156.311Z" fill="#223AA3" fill-opacity="0.05"/>
<path d="M44.9999 166.537C45.849 166.537 46.5372 165.849 46.5372 165C46.5372 164.151 45.849 163.463 44.9999 163.463C44.1509 163.463 43.4626 164.151 43.4626 165C43.4626 165.849 44.1509 166.537 44.9999 166.537Z" fill="#223AA3" fill-opacity="0.05"/>
<path d="M45 176.95C46.0771 176.95 46.9503 176.077 46.9503 175C46.9503 173.923 46.0771 173.05 45 173.05C43.923 173.05 43.0498 173.923 43.0498 175C43.0498 176.077 43.923 176.95 45 176.95Z" fill="#223AA3" fill-opacity="0.05"/>
<path d="M45 187.426C46.34 187.426 47.4263 186.34 47.4263 185C47.4263 183.66 46.34 182.574 45 182.574C43.66 182.574 42.5737 183.66 42.5737 185C42.5737 186.34 43.66 187.426 45 187.426Z" fill="#223AA3" fill-opacity="0.05"/>
<path d="M45 197.839C46.5678 197.839 47.8387 196.568 47.8387 195C47.8387 193.432 46.5678 192.161 45 192.161C43.4323 192.161 42.1614 193.432 42.1614 195C42.1614 196.568 43.4323 197.839 45 197.839Z" fill="#223AA3" fill-opacity="0.05"/>
<path d="M55 7.54515C56.4056 7.54515 57.5451 6.40565 57.5451 5C57.5451 3.59435 56.4056 2.45485 55 2.45485C53.5943 2.45485 52.4548 3.59435 52.4548 5C52.4548 6.40565 53.5943 7.54515 55 7.54515Z" fill="#223AA3" fill-opacity="0.05"/>
<path d="M55.0001 17.2015C56.2159 17.2015 57.2015 16.2158 57.2015 15C57.2015 13.7842 56.2159 12.7985 55.0001 12.7985C53.7842 12.7985 52.7986 13.7842 52.7986 15C52.7986 16.2158 53.7842 17.2015 55.0001 17.2015Z" fill="#223AA3" fill-opacity="0.05"/>
<path d="M54.9999 26.7887C55.9878 26.7887 56.7887 25.9879 56.7887 25C56.7887 24.0121 55.9878 23.2113 54.9999 23.2113C54.012 23.2113 53.2112 24.0121 53.2112 25C53.2112 25.9879 54.012 26.7887 54.9999 26.7887Z" fill="#223AA3" fill-opacity="0.05"/>
<path d="M55.0001 36.4859C55.8207 36.4859 56.486 35.8206 56.486 35C56.486 34.1794 55.8207 33.5141 55.0001 33.5141C54.1794 33.5141 53.5142 34.1794 53.5142 35C53.5142 35.8206 54.1794 36.4859 55.0001 36.4859Z" fill="#223AA3" fill-opacity="0.05"/>
<path d="M55 46.4236C55.7862 46.4236 56.4236 45.7862 56.4236 45C56.4236 44.2138 55.7862 43.5764 55 43.5764C54.2138 43.5764 53.5764 44.2138 53.5764 45C53.5764 45.7862 54.2138 46.4236 55 46.4236Z" fill="#223AA3" fill-opacity="0.05"/>
<path d="M55 56.6248C55.8974 56.6248 56.6248 55.8973 56.6248 55C56.6248 54.1027 55.8974 53.3752 55 53.3752C54.1027 53.3752 53.3752 54.1027 53.3752 55C53.3752 55.8973 54.1027 56.6248 55 56.6248Z" fill="#223AA3" fill-opacity="0.05"/>
<path d="M55.0001 67.0233C56.1176 67.0233 57.0234 66.1174 57.0234 65C57.0234 63.8826 56.1176 62.9767 55.0001 62.9767C53.8827 62.9767 52.9768 63.8826 52.9768 65C52.9768 66.1174 53.8827 67.0233 55.0001 67.0233Z" fill="#223AA3" fill-opacity="0.05"/>
<path d="M54.9999 77.5192C56.3912 77.5192 57.5191 76.3913 57.5191 75C57.5191 73.6087 56.3912 72.4808 54.9999 72.4808C53.6086 72.4808 52.4807 73.6087 52.4807 75C52.4807 76.3913 53.6086 77.5192 54.9999 77.5192Z" fill="#223AA3" fill-opacity="0.05"/>
<path d="M54.9999 87.9841C56.648 87.9841 57.984 86.6481 57.984 85C57.984 83.3519 56.648 82.0159 54.9999 82.0159C53.3519 82.0159 52.0159 83.3519 52.0159 85C52.0159 86.6481 53.3519 87.9841 54.9999 87.9841Z" fill="#223AA3" fill-opacity="0.05"/>
<path d="M54.9999 98.2946C56.8194 98.2946 58.2944 96.8195 58.2944 95C58.2944 93.1805 56.8194 91.7054 54.9999 91.7054C53.1803 91.7054 51.7053 93.1805 51.7053 95C51.7053 96.8195 53.1803 98.2946 54.9999 98.2946Z" fill="#223AA3" fill-opacity="0.05"/>
<path d="M55 108.343C56.8461 108.343 58.3427 106.846 58.3427 105C58.3427 103.154 56.8461 101.657 55 101.657C53.1538 101.657 51.6572 103.154 51.6572 105C51.6572 106.846 53.1538 108.343 55 108.343Z" fill="#223AA3" fill-opacity="0.05"/>
<path d="M55.0001 118.07C56.6958 118.07 58.0705 116.696 58.0705 115C58.0705 113.304 56.6958 111.93 55.0001 111.93C53.3044 111.93 51.9297 113.304 51.9297 115C51.9297 116.696 53.3044 118.07 55.0001 118.07Z" fill="#223AA3" fill-opacity="0.05"/>
<path d="M55.0001 127.554C56.4104 127.554 57.5537 126.41 57.5537 125C57.5537 123.59 56.4104 122.446 55.0001 122.446C53.5898 122.446 52.4465 123.59 52.4465 125C52.4465 126.41 53.5898 127.554 55.0001 127.554Z" fill="#223AA3" fill-opacity="0.05"/>
<path d="M55 136.984C56.0958 136.984 56.9841 136.096 56.9841 135C56.9841 133.904 56.0958 133.016 55 133.016C53.9042 133.016 53.0159 133.904 53.0159 135C53.0159 136.096 53.9042 136.984 55 136.984Z" fill="#223AA3" fill-opacity="0.05"/>
<path d="M55.0001 146.577C55.8709 146.577 56.5768 145.871 56.5768 145C56.5768 144.129 55.8709 143.423 55.0001 143.423C54.1293 143.423 53.4233 144.129 53.4233 145C53.4233 145.871 54.1293 146.577 55.0001 146.577Z" fill="#223AA3" fill-opacity="0.05"/>
<path d="M55.0001 156.465C55.8093 156.465 56.4653 155.809 56.4653 155C56.4653 154.191 55.8093 153.535 55.0001 153.535C54.1909 153.535 53.5349 154.191 53.5349 155C53.5349 155.809 54.1909 156.465 55.0001 156.465Z" fill="#223AA3" fill-opacity="0.05"/>
<path d="M55 166.64C55.906 166.64 56.6404 165.906 56.6404 165C56.6404 164.094 55.906 163.36 55 163.36C54.094 163.36 53.3596 164.094 53.3596 165C53.3596 165.906 54.094 166.64 55 166.64Z" fill="#223AA3" fill-opacity="0.05"/>
<path d="M54.9999 176.987C56.0975 176.987 56.9872 176.098 56.9872 175C56.9872 173.902 56.0975 173.013 54.9999 173.013C53.9024 173.013 53.0127 173.902 53.0127 175C53.0127 176.098 53.9024 176.987 54.9999 176.987Z" fill="#223AA3" fill-opacity="0.05"/>
<path d="M55.0001 187.392C56.3211 187.392 57.392 186.321 57.392 185C57.392 183.679 56.3211 182.608 55.0001 182.608C53.679 182.608 52.6082 183.679 52.6082 185C52.6082 186.321 53.679 187.392 55.0001 187.392Z" fill="#223AA3" fill-opacity="0.05"/>
<path d="M55 197.735C56.5105 197.735 57.735 196.511 57.735 195C57.735 193.489 56.5105 192.265 55 192.265C53.4894 192.265 52.2649 193.489 52.2649 195C52.2649 196.511 53.4894 197.735 55 197.735Z" fill="#223AA3" fill-opacity="0.05"/>
<path d="M64.9999 7.74233C66.5145 7.74233 67.7422 6.51455 67.7422 5C67.7422 3.48545 66.5145 2.25766 64.9999 2.25766C63.4854 2.25766 62.2576 3.48545 62.2576 5C62.2576 6.51455 63.4854 7.74233 64.9999 7.74233Z" fill="#223AA3" fill-opacity="0.05"/>
<path d="M64.9999 17.3354C66.2897 17.3354 67.3353 16.2898 67.3353 15C67.3353 13.7102 66.2897 12.6646 64.9999 12.6646C63.7101 12.6646 62.6646 13.7102 62.6646 15C62.6646 16.2898 63.7101 17.3354 64.9999 17.3354Z" fill="#223AA3" fill-opacity="0.05"/>
<path d="M65 26.791C65.9892 26.791 66.7911 25.9892 66.7911 25C66.7911 24.0108 65.9892 23.209 65 23.209C64.0109 23.209 63.209 24.0108 63.209 25C63.209 25.9892 64.0109 26.791 65 26.791Z" fill="#223AA3" fill-opacity="0.05"/>
<path d="M64.9999 36.32C65.7289 36.32 66.3199 35.729 66.3199 35C66.3199 34.271 65.7289 33.68 64.9999 33.68C64.2709 33.68 63.6799 34.271 63.6799 35C63.6799 35.729 64.2709 36.32 64.9999 36.32Z" fill="#223AA3" fill-opacity="0.05"/>
<path d="M64.9999 46.1C65.6074 46.1 66.0999 45.6075 66.0999 45C66.0999 44.3925 65.6074 43.9 64.9999 43.9C64.3924 43.9 63.8999 44.3925 63.8999 45C63.8999 45.6075 64.3924 46.1 64.9999 46.1Z" fill="#223AA3" fill-opacity="0.05"/>
<path d="M65.0001 56.1927C65.6588 56.1927 66.1928 55.6587 66.1928 55C66.1928 54.3413 65.6588 53.8073 65.0001 53.8073C64.3414 53.8073 63.8074 54.3413 63.8074 55C63.8074 55.6587 64.3414 56.1927 65.0001 56.1927Z" fill="#223AA3" fill-opacity="0.05"/>
<path d="M65 66.5332C65.8468 66.5332 66.5333 65.8468 66.5333 65C66.5333 64.1532 65.8468 63.4668 65 63.4668C64.1533 63.4668 63.4668 64.1532 63.4668 65C63.4668 65.8468 64.1533 66.5332 65 66.5332Z" fill="#223AA3" fill-opacity="0.05"/>
<path d="M65.0001 77.0137C66.1122 77.0137 67.0138 76.1122 67.0138 75C67.0138 73.8879 66.1122 72.9863 65.0001 72.9863C63.8879 72.9863 62.9863 73.8879 62.9863 75C62.9863 76.1122 63.8879 77.0137 65.0001 77.0137Z" fill="#223AA3" fill-opacity="0.05"/>
<path d="M65 87.5081C66.3852 87.5081 67.5081 86.3852 67.5081 85C67.5081 83.6148 66.3852 82.4919 65 82.4919C63.6148 82.4919 62.4919 83.6148 62.4919 85C62.4919 86.3852 63.6148 87.5081 65 87.5081Z" fill="#223AA3" fill-opacity="0.05"/>
<path d="M64.9999 97.8883C66.5951 97.8883 67.8882 96.5952 67.8882 95C67.8882 93.4048 66.5951 92.1117 64.9999 92.1117C63.4047 92.1117 62.1116 93.4048 62.1116 95C62.1116 96.5952 63.4047 97.8883 64.9999 97.8883Z" fill="#223AA3" fill-opacity="0.05"/>
<path d="M65 108.052C66.6858 108.052 68.0525 106.686 68.0525 105C68.0525 103.314 66.6858 101.948 65 101.948C63.3142 101.948 61.9475 103.314 61.9475 105C61.9475 106.686 63.3142 108.052 65 108.052Z" fill="#223AA3" fill-opacity="0.05"/>
<path d="M65 117.941C66.624 117.941 67.9406 116.624 67.9406 115C67.9406 113.376 66.624 112.059 65 112.059C63.3759 112.059 62.0593 113.376 62.0593 115C62.0593 116.624 63.3759 117.941 65 117.941Z" fill="#223AA3" fill-opacity="0.05"/>
<path d="M65 127.598C66.4348 127.598 67.5979 126.435 67.5979 125C67.5979 123.565 66.4348 122.402 65 122.402C63.5652 122.402 62.4021 123.565 62.4021 125C62.4021 126.435 63.5652 127.598 65 127.598Z" fill="#223AA3" fill-opacity="0.05"/>
<path d="M64.9999 137.172C66.1995 137.172 67.172 136.2 67.172 135C67.172 133.8 66.1995 132.828 64.9999 132.828C63.8003 132.828 62.8279 133.8 62.8279 135C62.8279 136.2 63.8003 137.172 64.9999 137.172Z" fill="#223AA3" fill-opacity="0.05"/>
<path d="M65 146.843C66.0177 146.843 66.8428 146.018 66.8428 145C66.8428 143.982 66.0177 143.157 65 143.157C63.9823 143.157 63.1572 143.982 63.1572 145C63.1572 146.018 63.9823 146.843 65 146.843Z" fill="#223AA3" fill-opacity="0.05"/>
<path d="M64.9999 156.731C65.9559 156.731 66.7309 155.956 66.7309 155C66.7309 154.044 65.9559 153.269 64.9999 153.269C64.044 153.269 63.269 154.044 63.269 155C63.269 155.956 64.044 156.731 64.9999 156.731Z" fill="#223AA3" fill-opacity="0.05"/>
<path d="M65 166.839C66.0157 166.839 66.839 166.016 66.839 165C66.839 163.984 66.0157 163.161 65 163.161C63.9844 163.161 63.1611 163.984 63.1611 165C63.1611 166.016 63.9844 166.839 65 166.839Z" fill="#223AA3" fill-opacity="0.05"/>
<path d="M65 177.078C66.1478 177.078 67.0782 176.148 67.0782 175C67.0782 173.852 66.1478 172.922 65 172.922C63.8523 172.922 62.9219 173.852 62.9219 175C62.9219 176.148 63.8523 177.078 65 177.078Z" fill="#223AA3" fill-opacity="0.05"/>
<path d="M64.9999 187.361C66.3041 187.361 67.3614 186.304 67.3614 185C67.3614 183.696 66.3041 182.639 64.9999 182.639C63.6957 182.639 62.6384 183.696 62.6384 185C62.6384 186.304 63.6957 187.361 64.9999 187.361Z" fill="#223AA3" fill-opacity="0.05"/>
<path d="M65 197.585C66.4277 197.585 67.585 196.428 67.585 195C67.585 193.572 66.4277 192.415 65 192.415C63.5724 192.415 62.415 193.572 62.415 195C62.415 196.428 63.5724 197.585 65 197.585Z" fill="#223AA3" fill-opacity="0.05"/>
<path d="M75.0001 7.92344C76.6147 7.92344 77.9235 6.61457 77.9235 5C77.9235 3.38542 76.6147 2.07655 75.0001 2.07655C73.3855 2.07655 72.0767 3.38542 72.0767 5C72.0767 6.61457 73.3855 7.92344 75.0001 7.92344Z" fill="#223AA3" fill-opacity="0.05"/>
<path d="M74.9999 17.487C76.3734 17.487 77.4869 16.3735 77.4869 15C77.4869 13.6265 76.3734 12.513 74.9999 12.513C73.6264 12.513 72.5129 13.6265 72.5129 15C72.5129 16.3735 73.6264 17.487 74.9999 17.487Z" fill="#223AA3" fill-opacity="0.05"/>
<path d="M75.0001 26.8587C76.0266 26.8587 76.8588 26.0265 76.8588 25C76.8588 23.9734 76.0266 23.1413 75.0001 23.1413C73.9735 23.1413 73.1414 23.9734 73.1414 25C73.1414 26.0265 73.9735 26.8587 75.0001 26.8587Z" fill="#223AA3" fill-opacity="0.05"/>
<path d="M75.0001 36.264C75.6981 36.264 76.264 35.6981 76.264 35C76.264 34.3019 75.6981 33.736 75.0001 33.736C74.302 33.736 73.7361 34.3019 73.7361 35C73.7361 35.6981 74.302 36.264 75.0001 36.264Z" fill="#223AA3" fill-opacity="0.05"/>
<path d="M75 45.9082C75.5015 45.9082 75.9081 45.5016 75.9081 45C75.9081 44.4984 75.5015 44.0918 75 44.0918C74.4984 44.0918 74.0918 44.4984 74.0918 45C74.0918 45.5016 74.4984 45.9082 75 45.9082Z" fill="#223AA3" fill-opacity="0.05"/>
<path d="M75.0001 55.881C75.4866 55.881 75.8811 55.4865 75.8811 55C75.8811 54.5135 75.4866 54.119 75.0001 54.119C74.5136 54.119 74.1191 54.5135 74.1191 55C74.1191 55.4865 74.5136 55.881 75.0001 55.881Z" fill="#223AA3" fill-opacity="0.05"/>
<path d="M75 66.1321C75.6252 66.1321 76.1321 65.6252 76.1321 65C76.1321 64.3748 75.6252 63.8679 75 63.8679C74.3748 63.8679 73.8679 64.3748 73.8679 65C73.8679 65.6252 74.3748 66.1321 75 66.1321Z" fill="#223AA3" fill-opacity="0.05"/>
<path d="M74.9999 76.5553C75.8589 76.5553 76.5553 75.859 76.5553 75C76.5553 74.141 75.8589 73.4446 74.9999 73.4446C74.1409 73.4446 73.4446 74.141 73.4446 75C73.4446 75.859 74.1409 76.5553 74.9999 76.5553Z" fill="#223AA3" fill-opacity="0.05"/>
<path d="M75.0001 87.0343C76.1236 87.0343 77.0344 86.1235 77.0344 85C77.0344 83.8765 76.1236 82.9657 75.0001 82.9657C73.8766 82.9657 72.9658 83.8765 72.9658 85C72.9658 86.1235 73.8766 87.0343 75.0001 87.0343Z" fill="#223AA3" fill-opacity="0.05"/>
<path d="M75.0001 97.4479C76.352 97.4479 77.448 96.3519 77.448 95C77.448 93.6481 76.352 92.5521 75.0001 92.5521C73.6482 92.5521 72.5522 93.6481 72.5522 95C72.5522 96.3519 73.6482 97.4479 75.0001 97.4479Z" fill="#223AA3" fill-opacity="0.05"/>
<path d="M74.9999 107.714C76.4987 107.714 77.7137 106.499 77.7137 105C77.7137 103.501 76.4987 102.286 74.9999 102.286C73.5011 102.286 72.2861 103.501 72.2861 105C72.2861 106.499 73.5011 107.714 74.9999 107.714Z" fill="#223AA3" fill-opacity="0.05"/>
<path d="M75 117.78C76.5354 117.78 77.78 116.535 77.78 115C77.78 113.465 76.5354 112.22 75 112.22C73.4646 112.22 72.22 113.465 72.22 115C72.22 116.535 73.4646 117.78 75 117.78Z" fill="#223AA3" fill-opacity="0.05"/>
<path d="M75 127.652C76.4647 127.652 77.652 126.465 77.652 125C77.652 123.535 76.4647 122.348 75 122.348C73.5353 122.348 72.3479 123.535 72.3479 125C72.3479 126.465 73.5353 127.652 75 127.652Z" fill="#223AA3" fill-opacity="0.05"/>
<path d="M74.9999 137.419C76.3361 137.419 77.4193 136.336 77.4193 135C77.4193 133.664 76.3361 132.581 74.9999 132.581C73.6638 132.581 72.5806 133.664 72.5806 135C72.5806 136.336 73.6638 137.419 74.9999 137.419Z" fill="#223AA3" fill-opacity="0.05"/>
<path d="M75.0001 147.211C76.2212 147.211 77.2111 146.221 77.2111 145C77.2111 143.779 76.2212 142.789 75.0001 142.789C73.779 142.789 72.7891 143.779 72.7891 145C72.7891 146.221 73.779 147.211 75.0001 147.211Z" fill="#223AA3" fill-opacity="0.05"/>
<path d="M74.9999 157.122C76.1716 157.122 77.1215 156.172 77.1215 155C77.1215 153.828 76.1716 152.878 74.9999 152.878C73.8283 152.878 72.8784 153.828 72.8784 155C72.8784 156.172 73.8283 157.122 74.9999 157.122Z" fill="#223AA3" fill-opacity="0.05"/>
<path d="M75 167.158C76.192 167.158 77.1583 166.192 77.1583 165C77.1583 163.808 76.192 162.842 75 162.842C73.8079 162.842 72.8416 163.808 72.8416 165C72.8416 166.192 73.8079 167.158 75 167.158Z" fill="#223AA3" fill-opacity="0.05"/>
<path d="M75 177.265C76.2511 177.265 77.2654 176.251 77.2654 175C77.2654 173.749 76.2511 172.735 75 172.735C73.7489 172.735 72.7346 173.749 72.7346 175C72.7346 176.251 73.7489 177.265 75 177.265Z" fill="#223AA3" fill-opacity="0.05"/>
<path d="M75.0001 187.388C76.3187 187.388 77.3876 186.319 77.3876 185C77.3876 183.681 76.3187 182.612 75.0001 182.612C73.6815 182.612 72.6125 183.681 72.6125 185C72.6125 186.319 73.6815 187.388 75.0001 187.388Z" fill="#223AA3" fill-opacity="0.05"/>
<path d="M75.0001 197.452C76.3541 197.452 77.4518 196.354 77.4518 195C77.4518 193.646 76.3541 192.548 75.0001 192.548C73.646 192.548 72.5483 193.646 72.5483 195C72.5483 196.354 73.646 197.452 75.0001 197.452Z" fill="#223AA3" fill-opacity="0.05"/>
<path d="M85.0001 8.05598C86.6878 8.05598 88.056 6.68777 88.056 5C88.056 3.31223 86.6878 1.94402 85.0001 1.94402C83.3123 1.94402 81.9441 3.31223 81.9441 5C81.9441 6.68777 83.3123 8.05598 85.0001 8.05598Z" fill="#223AA3" fill-opacity="0.05"/>
<path d="M85 17.6414C86.4588 17.6414 87.6414 16.4588 87.6414 15C87.6414 13.5412 86.4588 12.3586 85 12.3586C83.5412 12.3586 82.3586 13.5412 82.3586 15C82.3586 16.4588 83.5412 17.6414 85 17.6414Z" fill="#223AA3" fill-opacity="0.05"/>
<path d="M85 27.0044C86.107 27.0044 87.0044 26.107 87.0044 25C87.0044 23.893 86.107 22.9956 85 22.9956C83.893 22.9956 82.9956 23.893 82.9956 25C82.9956 26.107 83.893 27.0044 85 27.0044Z" fill="#223AA3" fill-opacity="0.05"/>
<path d="M85 36.3618C85.7521 36.3618 86.3619 35.7521 86.3619 35C86.3619 34.2479 85.7521 33.6382 85 33.6382C84.2479 33.6382 83.6382 34.2479 83.6382 35C83.6382 35.7521 84.2479 36.3618 85 36.3618Z" fill="#223AA3" fill-opacity="0.05"/>
<path d="M84.9999 45.9223C85.5092 45.9223 85.9221 45.5093 85.9221 45C85.9221 44.4907 85.5092 44.0778 84.9999 44.0778C84.4905 44.0778 84.0776 44.4907 84.0776 45C84.0776 45.5093 84.4905 45.9223 84.9999 45.9223Z" fill="#223AA3" fill-opacity="0.05"/>
<path d="M85 55.79C85.4363 55.79 85.79 55.4363 85.79 55C85.79 54.5637 85.4363 54.21 85 54.21C84.5637 54.21 84.21 54.5637 84.21 55C84.21 55.4363 84.5637 55.79 85 55.79Z" fill="#223AA3" fill-opacity="0.05"/>
<path d="M85.0001 65.9337C85.5157 65.9337 85.9337 65.5156 85.9337 65C85.9337 64.4844 85.5157 64.0663 85.0001 64.0663C84.4844 64.0663 84.0664 64.4844 84.0664 65C84.0664 65.5156 84.4844 65.9337 85.0001 65.9337Z" fill="#223AA3" fill-opacity="0.05"/>
<path d="M85 76.2635C85.6978 76.2635 86.2635 75.6978 86.2635 75C86.2635 74.3022 85.6978 73.7365 85 73.7365C84.3022 73.7365 83.7366 74.3022 83.7366 75C83.7366 75.6978 84.3022 76.2635 85 76.2635Z" fill="#223AA3" fill-opacity="0.05"/>
<path d="M85.0001 86.6854C85.9309 86.6854 86.6855 85.9308 86.6855 85C86.6855 84.0692 85.9309 83.3146 85.0001 83.3146C84.0693 83.3146 83.3147 84.0692 83.3147 85C83.3147 85.9308 84.0693 86.6854 85.0001 86.6854Z" fill="#223AA3" fill-opacity="0.05"/>
<path d="M84.9999 97.1044C86.1621 97.1044 87.1043 96.1622 87.1043 95C87.1043 93.8378 86.1621 92.8956 84.9999 92.8956C83.8377 92.8956 82.8955 93.8378 82.8955 95C82.8955 96.1622 83.8377 97.1044 84.9999 97.1044Z" fill="#223AA3" fill-opacity="0.05"/>
<path d="M85 107.448C86.3518 107.448 87.4477 106.352 87.4477 105C87.4477 103.648 86.3518 102.552 85 102.552C83.6481 102.552 82.5522 103.648 82.5522 105C82.5522 106.352 83.6481 107.448 85 107.448Z" fill="#223AA3" fill-opacity="0.05"/>
<path d="M85 117.668C86.4733 117.668 87.6677 116.473 87.6677 115C87.6677 113.527 86.4733 112.332 85 112.332C83.5267 112.332 82.3323 113.527 82.3323 115C82.3323 116.473 83.5267 117.668 85 117.668Z" fill="#223AA3" fill-opacity="0.05"/>
<path d="M85 127.742C86.5142 127.742 87.7417 126.514 87.7417 125C87.7417 123.486 86.5142 122.258 85 122.258C83.4858 122.258 82.2583 123.486 82.2583 125C82.2583 126.514 83.4858 127.742 85 127.742Z" fill="#223AA3" fill-opacity="0.05"/>
<path d="M85.0001 137.703C86.493 137.703 87.7033 136.493 87.7033 135C87.7033 133.507 86.493 132.297 85.0001 132.297C83.5071 132.297 82.2969 133.507 82.2969 135C82.2969 136.493 83.5071 137.703 85.0001 137.703Z" fill="#223AA3" fill-opacity="0.05"/>
<path d="M85.0001 147.627C86.4507 147.627 87.6267 146.451 87.6267 145C87.6267 143.549 86.4507 142.373 85.0001 142.373C83.5495 142.373 82.3735 143.549 82.3735 145C82.3735 146.451 83.5495 147.627 85.0001 147.627Z" fill="#223AA3" fill-opacity="0.05"/>
<path d="M84.9999 157.573C86.4207 157.573 87.5726 156.421 87.5726 155C87.5726 153.579 86.4207 152.427 84.9999 152.427C83.5791 152.427 82.4272 153.579 82.4272 155C82.4272 156.421 83.5791 157.573 84.9999 157.573Z" fill="#223AA3" fill-opacity="0.05"/>
<path d="M85.0001 167.548C86.4072 167.548 87.548 166.407 87.548 165C87.548 163.593 86.4072 162.452 85.0001 162.452C83.5929 162.452 82.4521 163.593 82.4521 165C82.4521 166.407 83.5929 167.548 85.0001 167.548Z" fill="#223AA3" fill-opacity="0.05"/>
<path d="M85 177.528C86.396 177.528 87.5277 176.396 87.5277 175C87.5277 173.604 86.396 172.472 85 172.472C83.6041 172.472 82.4724 173.604 82.4724 175C82.4724 176.396 83.6041 177.528 85 177.528Z" fill="#223AA3" fill-opacity="0.05"/>
<path d="M85 187.49C86.375 187.49 87.4896 186.375 87.4896 185C87.4896 183.625 86.375 182.51 85 182.51C83.6251 182.51 82.5105 183.625 82.5105 185C82.5105 186.375 83.6251 187.49 85 187.49Z" fill="#223AA3" fill-opacity="0.05"/>
<path d="M85 197.4C86.3255 197.4 87.4 196.325 87.4 195C87.4 193.675 86.3255 192.6 85 192.6C83.6746 192.6 82.6001 193.675 82.6001 195C82.6001 196.325 83.6746 197.4 85 197.4Z" fill="#223AA3" fill-opacity="0.05"/>
<path d="M94.9999 8.11248C96.7189 8.11248 98.1124 6.71897 98.1124 5C98.1124 3.28102 96.7189 1.88751 94.9999 1.88751C93.281 1.88751 91.8875 3.28102 91.8875 5C91.8875 6.71897 93.281 8.11248 94.9999 8.11248Z" fill="#223AA3" fill-opacity="0.05"/>
<path d="M95.0001 17.7855C96.5384 17.7855 97.7855 16.5384 97.7855 15C97.7855 13.4616 96.5384 12.2145 95.0001 12.2145C93.4617 12.2145 92.2146 13.4616 92.2146 15C92.2146 16.5384 93.4617 17.7855 95.0001 17.7855Z" fill="#223AA3" fill-opacity="0.05"/>
<path d="M95.0001 27.2388C96.2366 27.2388 97.2389 26.2365 97.2389 25C97.2389 23.7635 96.2366 22.7612 95.0001 22.7612C93.7636 22.7612 92.7612 23.7635 92.7612 25C92.7612 26.2365 93.7636 27.2388 95.0001 27.2388Z" fill="#223AA3" fill-opacity="0.05"/>
<path d="M95 36.6516C95.9121 36.6516 96.6515 35.9121 96.6515 35C96.6515 34.0879 95.9121 33.3484 95 33.3484C94.0878 33.3484 93.3484 34.0879 93.3484 35C93.3484 35.9121 94.0878 36.6516 95 36.6516Z" fill="#223AA3" fill-opacity="0.05"/>
<path d="M95.0001 46.2081C95.6673 46.2081 96.2082 45.6672 96.2082 45C96.2082 44.3328 95.6673 43.7919 95.0001 43.7919C94.3329 43.7919 93.792 44.3328 93.792 45C93.792 45.6672 94.3329 46.2081 95.0001 46.2081Z" fill="#223AA3" fill-opacity="0.05"/>
<path d="M95.0001 56.0089C95.5573 56.0089 96.009 55.5572 96.009 55C96.009 54.4428 95.5573 53.9911 95.0001 53.9911C94.4429 53.9911 93.9912 54.4428 93.9912 55C93.9912 55.5572 94.4429 56.0089 95.0001 56.0089Z" fill="#223AA3" fill-opacity="0.05"/>
<path d="M94.9999 66.0385C95.5735 66.0385 96.0385 65.5736 96.0385 65C96.0385 64.4264 95.5735 63.9615 94.9999 63.9615C94.4264 63.9615 93.9614 64.4264 93.9614 65C93.9614 65.5736 94.4264 66.0385 94.9999 66.0385Z" fill="#223AA3" fill-opacity="0.05"/>
<path d="M95 76.2378C95.6837 76.2378 96.2379 75.6836 96.2379 75C96.2379 74.3164 95.6837 73.7622 95 73.7622C94.3164 73.7622 93.7622 74.3164 93.7622 75C93.7622 75.6836 94.3164 76.2378 95 76.2378Z" fill="#223AA3" fill-opacity="0.05"/>
<path d="M95 86.5577C95.8603 86.5577 96.5577 85.8603 96.5577 85C96.5577 84.1397 95.8603 83.4423 95 83.4423C94.1398 83.4423 93.4424 84.1397 93.4424 85C93.4424 85.8603 94.1398 86.5577 95 86.5577Z" fill="#223AA3" fill-opacity="0.05"/>
<path d="M95.0001 96.9405C96.0717 96.9405 96.9405 96.0717 96.9405 95C96.9405 93.9283 96.0717 93.0595 95.0001 93.0595C93.9284 93.0595 93.0596 93.9283 93.0596 95C93.0596 96.0717 93.9284 96.9405 95.0001 96.9405Z" fill="#223AA3" fill-opacity="0.05"/>
<path d="M95 107.317C96.2798 107.317 97.3173 106.28 97.3173 105C97.3173 103.72 96.2798 102.683 95 102.683C93.7201 102.683 92.6826 103.72 92.6826 105C92.6826 106.28 93.7201 107.317 95 107.317Z" fill="#223AA3" fill-opacity="0.05"/>
<path d="M95 117.628C96.4513 117.628 97.6279 116.451 97.6279 115C97.6279 113.549 96.4513 112.372 95 112.372C93.5486 112.372 92.3721 113.549 92.3721 115C92.3721 116.451 93.5486 117.628 95 117.628Z" fill="#223AA3" fill-opacity="0.05"/>
<path d="M94.9999 127.839C96.568 127.839 97.8392 126.568 97.8392 125C97.8392 123.432 96.568 122.161 94.9999 122.161C93.4318 122.161 92.1606 123.432 92.1606 125C92.1606 126.568 93.4318 127.839 94.9999 127.839Z" fill="#223AA3" fill-opacity="0.05"/>
<path d="M95 137.948C96.628 137.948 97.9478 136.628 97.9478 135C97.9478 133.372 96.628 132.052 95 132.052C93.372 132.052 92.0522 133.372 92.0522 135C92.0522 136.628 93.372 137.948 95 137.948Z" fill="#223AA3" fill-opacity="0.05"/>
<path d="M95 147.98C96.6456 147.98 97.9797 146.646 97.9797 145C97.9797 143.354 96.6456 142.02 95 142.02C93.3543 142.02 92.0203 143.354 92.0203 145C92.0203 146.646 93.3543 147.98 95 147.98Z" fill="#223AA3" fill-opacity="0.05"/>
<path d="M95 157.962C96.6356 157.962 97.9616 156.636 97.9616 155C97.9616 153.364 96.6356 152.038 95 152.038C93.3643 152.038 92.0383 153.364 92.0383 155C92.0383 156.636 93.3643 157.962 95 157.962Z" fill="#223AA3" fill-opacity="0.05"/>
<path d="M95.0001 167.896C96.5993 167.896 97.8958 166.599 97.8958 165C97.8958 163.401 96.5993 162.104 95.0001 162.104C93.4009 162.104 92.1045 163.401 92.1045 165C92.1045 166.599 93.4009 167.896 95.0001 167.896Z" fill="#223AA3" fill-opacity="0.05"/>
<path d="M95 177.783C96.5369 177.783 97.7827 176.537 97.7827 175C97.7827 173.463 96.5369 172.217 95 172.217C93.4632 172.217 92.2173 173.463 92.2173 175C92.2173 176.537 93.4632 177.783 95 177.783Z" fill="#223AA3" fill-opacity="0.05"/>
<path d="M95 187.629C96.452 187.629 97.629 186.452 97.629 185C97.629 183.548 96.452 182.371 95 182.371C93.5481 182.371 92.3711 183.548 92.3711 185C92.3711 186.452 93.5481 187.629 95 187.629Z" fill="#223AA3" fill-opacity="0.05"/>
<path d="M95.0001 197.437C96.346 197.437 97.4372 196.346 97.4372 195C97.4372 193.654 96.346 192.563 95.0001 192.563C93.6541 192.563 92.563 193.654 92.563 195C92.563 196.346 93.6541 197.437 95.0001 197.437Z" fill="#223AA3" fill-opacity="0.05"/>
<path d="M105 8.10519C106.715 8.10519 108.105 6.71495 108.105 5C108.105 3.28505 106.715 1.89481 105 1.89481C103.285 1.89481 101.895 3.28505 101.895 5C101.895 6.71495 103.285 8.10519 105 8.10519Z" fill="#223AA3" fill-opacity="0.05"/>
<path d="M105 17.9199C106.613 17.9199 107.92 16.6126 107.92 15C107.92 13.3874 106.613 12.0801 105 12.0801C103.387 12.0801 102.08 13.3874 102.08 15C102.08 16.6126 103.387 17.9199 105 17.9199Z" fill="#223AA3" fill-opacity="0.05"/>
<path d="M105 27.5469C106.407 27.5469 107.547 26.4066 107.547 25C107.547 23.5934 106.407 22.4531 105 22.4531C103.593 22.4531 102.453 23.5934 102.453 25C102.453 26.4066 103.593 27.5469 105 27.5469Z" fill="#223AA3" fill-opacity="0.05"/>
<path d="M105 37.1082C106.164 37.1082 107.108 36.1643 107.108 35C107.108 33.8357 106.164 32.8918 105 32.8918C103.836 32.8918 102.892 33.8357 102.892 35C102.892 36.1643 103.836 37.1082 105 37.1082Z" fill="#223AA3" fill-opacity="0.05"/>
<path d="M105 46.7422C105.962 46.7422 106.742 45.9622 106.742 45C106.742 44.0378 105.962 43.2579 105 43.2579C104.038 43.2579 103.258 44.0378 103.258 45C103.258 45.9622 104.038 46.7422 105 46.7422Z" fill="#223AA3" fill-opacity="0.05"/>
<path d="M105 56.5272C105.843 56.5272 106.527 55.8434 106.527 55C106.527 54.1566 105.843 53.4728 105 53.4728C104.157 53.4728 103.473 54.1566 103.473 55C103.473 55.8434 104.157 56.5272 105 56.5272Z" fill="#223AA3" fill-opacity="0.05"/>
<path d="M105 66.4571C105.805 66.4571 106.457 65.8047 106.457 65C106.457 64.1953 105.805 63.5429 105 63.5429C104.195 63.5429 103.543 64.1953 103.543 65C103.543 65.8047 104.195 66.4571 105 66.4571Z" fill="#223AA3" fill-opacity="0.05"/>
<path d="M105 76.512C105.835 76.512 106.512 75.835 106.512 75C106.512 74.165 105.835 73.488 105 73.488C104.165 73.488 103.488 74.165 103.488 75C103.488 75.835 104.165 76.512 105 76.512Z" fill="#223AA3" fill-opacity="0.05"/>
<path d="M105 86.691C105.934 86.691 106.691 85.9339 106.691 85C106.691 84.0661 105.934 83.309 105 83.309C104.066 83.309 103.309 84.0661 103.309 85C103.309 85.9339 104.066 86.691 105 86.691Z" fill="#223AA3" fill-opacity="0.05"/>
<path d="M105 96.9731C106.09 96.9731 106.973 96.0897 106.973 95C106.973 93.9103 106.09 93.0269 105 93.0269C103.91 93.0269 103.027 93.9103 103.027 95C103.027 96.0897 103.91 96.9731 105 96.9731Z" fill="#223AA3" fill-opacity="0.05"/>
<path d="M105 107.308C106.275 107.308 107.308 106.274 107.308 105C107.308 103.726 106.275 102.692 105 102.692C103.726 102.692 102.692 103.726 102.692 105C102.692 106.274 103.726 107.308 105 107.308Z" fill="#223AA3" fill-opacity="0.05"/>
<path d="M105 117.63C106.452 117.63 107.63 116.452 107.63 115C107.63 113.548 106.452 112.37 105 112.37C103.548 112.37 102.37 113.548 102.37 115C102.37 116.452 103.548 117.63 105 117.63Z" fill="#223AA3" fill-opacity="0.05"/>
<path d="M105 127.888C106.595 127.888 107.888 126.595 107.888 125C107.888 123.405 106.595 122.112 105 122.112C103.405 122.112 102.112 123.405 102.112 125C102.112 126.595 103.405 127.888 105 127.888Z" fill="#223AA3" fill-opacity="0.05"/>
<path d="M105 138.066C106.693 138.066 108.066 136.693 108.066 135C108.066 133.307 106.693 131.934 105 131.934C103.307 131.934 101.935 133.307 101.935 135C101.935 136.693 103.307 138.066 105 138.066Z" fill="#223AA3" fill-opacity="0.05"/>
<path d="M105 148.158C106.744 148.158 108.158 146.744 108.158 145C108.158 143.256 106.744 141.842 105 141.842C103.256 141.842 101.842 143.256 101.842 145C101.842 146.744 103.256 148.158 105 148.158Z" fill="#223AA3" fill-opacity="0.05"/>
<path d="M105 158.164C106.748 158.164 108.164 156.748 108.164 155C108.164 153.252 106.748 151.836 105 151.836C103.252 151.836 101.835 153.252 101.835 155C101.835 156.748 103.252 158.164 105 158.164Z" fill="#223AA3" fill-opacity="0.05"/>
<path d="M105 168.083C106.703 168.083 108.083 166.703 108.083 165C108.083 163.297 106.703 161.917 105 161.917C103.297 161.917 101.917 163.297 101.917 165C101.917 166.703 103.297 168.083 105 168.083Z" fill="#223AA3" fill-opacity="0.05"/>
<path d="M105 177.931C106.618 177.931 107.93 176.618 107.93 175C107.93 173.381 106.618 172.069 105 172.069C103.381 172.069 102.069 173.381 102.069 175C102.069 176.618 103.381 177.931 105 177.931Z" fill="#223AA3" fill-opacity="0.05"/>
<path d="M105 187.731C106.508 187.731 107.731 186.508 107.731 185C107.731 183.492 106.508 182.269 105 182.269C103.492 182.269 102.269 183.492 102.269 185C102.269 186.508 103.492 187.731 105 187.731Z" fill="#223AA3" fill-opacity="0.05"/>
<path d="M105 197.513C106.388 197.513 107.513 196.388 107.513 195C107.513 193.612 106.388 192.487 105 192.487C103.612 192.487 102.487 193.612 102.487 195C102.487 196.388 103.612 197.513 105 197.513Z" fill="#223AA3" fill-opacity="0.05"/>
<path d="M115 8.05331C116.686 8.05331 118.053 6.68629 118.053 5C118.053 3.3137 116.686 1.94669 115 1.94669C113.314 1.94669 111.947 3.3137 111.947 5C111.947 6.68629 113.314 8.05331 115 8.05331Z" fill="#223AA3" fill-opacity="0.05"/>
<path d="M115 18.0168C116.666 18.0168 118.017 16.6662 118.017 15C118.017 13.3338 116.666 11.9832 115 11.9832C113.334 11.9832 111.983 13.3338 111.983 15C111.983 16.6662 113.334 18.0168 115 18.0168Z" fill="#223AA3" fill-opacity="0.05"/>
<path d="M115 27.8488C116.573 27.8488 117.849 26.5734 117.849 25C117.849 23.4266 116.573 22.1512 115 22.1512C113.427 22.1512 112.151 23.4266 112.151 25C112.151 26.5734 113.427 27.8488 115 27.8488Z" fill="#223AA3" fill-opacity="0.05"/>
<path d="M115 37.6095C116.441 37.6095 117.61 36.4412 117.61 35C117.61 33.5588 116.441 32.3905 115 32.3905C113.559 32.3905 112.391 33.5588 112.391 35C112.391 36.4412 113.559 37.6095 115 37.6095Z" fill="#223AA3" fill-opacity="0.05"/>
<path d="M115 47.3772C116.313 47.3772 117.377 46.3129 117.377 45C117.377 43.6871 116.313 42.6228 115 42.6228C113.687 42.6228 112.623 43.6871 112.623 45C112.623 46.3129 113.687 47.3772 115 47.3772Z" fill="#223AA3" fill-opacity="0.05"/>
<path d="M115 57.1942C116.212 57.1942 117.194 56.2118 117.194 55C117.194 53.7882 116.212 52.8058 115 52.8058C113.788 52.8058 112.806 53.7882 112.806 55C112.806 56.2118 113.788 57.1942 115 57.1942Z" fill="#223AA3" fill-opacity="0.05"/>
<path d="M115 67.058C116.137 67.058 117.058 66.1366 117.058 65C117.058 63.8634 116.137 62.942 115 62.942C113.864 62.942 112.942 63.8634 112.942 65C112.942 66.1366 113.864 67.058 115 67.058Z" fill="#223AA3" fill-opacity="0.05"/>
<path d="M115 76.986C116.097 76.986 116.986 76.0969 116.986 75C116.986 73.9031 116.097 73.014 115 73.014C113.903 73.014 113.014 73.9031 113.014 75C113.014 76.0969 113.903 76.986 115 76.986Z" fill="#223AA3" fill-opacity="0.05"/>
<path d="M115 87.0119C116.111 87.0119 117.012 86.1111 117.012 85C117.012 83.8889 116.111 82.9881 115 82.9881C113.889 82.9881 112.988 83.8889 112.988 85C112.988 86.1111 113.889 87.0119 115 87.0119Z" fill="#223AA3" fill-opacity="0.05"/>
<path d="M115 97.1441C116.184 97.1441 117.144 96.1842 117.144 95C117.144 93.8158 116.184 92.8559 115 92.8559C113.816 92.8559 112.856 93.8158 112.856 95C112.856 96.1842 113.816 97.1441 115 97.1441Z" fill="#223AA3" fill-opacity="0.05"/>
<path d="M115 107.359C116.303 107.359 117.359 106.303 117.359 105C117.359 103.697 116.303 102.641 115 102.641C113.697 102.641 112.641 103.697 112.641 105C112.641 106.303 113.697 107.359 115 107.359Z" fill="#223AA3" fill-opacity="0.05"/>
<path d="M115 117.606C116.439 117.606 117.606 116.439 117.606 115C117.606 113.561 116.439 112.394 115 112.394C113.56 112.394 112.394 113.561 112.394 115C112.394 116.439 113.56 117.606 115 117.606Z" fill="#223AA3" fill-opacity="0.05"/>
<path d="M115 127.832C116.564 127.832 117.832 126.564 117.832 125C117.832 123.436 116.564 122.168 115 122.168C113.436 122.168 112.168 123.436 112.168 125C112.168 126.564 113.436 127.832 115 127.832Z" fill="#223AA3" fill-opacity="0.05"/>
<path d="M115 138C116.657 138 118 136.657 118 135C118 133.343 116.657 132 115 132C113.343 132 112 133.343 112 135C112 136.657 113.343 138 115 138Z" fill="#223AA3" fill-opacity="0.05"/>
<path d="M115 148.097C116.711 148.097 118.097 146.711 118.097 145C118.097 143.289 116.711 141.903 115 141.903C113.289 141.903 111.903 143.289 111.903 145C111.903 146.711 113.289 148.097 115 148.097Z" fill="#223AA3" fill-opacity="0.05"/>
<path d="M115 158.112C116.719 158.112 118.112 156.719 118.112 155C118.112 153.281 116.719 151.888 115 151.888C113.281 151.888 111.888 153.281 111.888 155C111.888 156.719 113.281 158.112 115 158.112Z" fill="#223AA3" fill-opacity="0.05"/>
<path d="M115 168.041C116.679 168.041 118.041 166.679 118.041 165C118.041 163.321 116.679 161.959 115 161.959C113.321 161.959 111.959 163.321 111.959 165C111.959 166.679 113.321 168.041 115 168.041Z" fill="#223AA3" fill-opacity="0.05"/>
<path d="M115 177.9C116.602 177.9 117.9 176.602 117.9 175C117.9 173.398 116.602 172.1 115 172.1C113.398 172.1 112.1 173.398 112.1 175C112.1 176.602 113.398 177.9 115 177.9Z" fill="#223AA3" fill-opacity="0.05"/>
<path d="M115 187.724C116.504 187.724 117.723 186.504 117.723 185C117.723 183.496 116.504 182.276 115 182.276C113.496 182.276 112.276 183.496 112.276 185C112.276 186.504 113.496 187.724 115 187.724Z" fill="#223AA3" fill-opacity="0.05"/>
<path d="M115 197.552C116.41 197.552 117.552 196.41 117.552 195C117.552 193.59 116.41 192.448 115 192.448C113.59 192.448 112.448 193.59 112.448 195C112.448 196.41 113.59 197.552 115 197.552Z" fill="#223AA3" fill-opacity="0.05"/>
<path d="M125 7.96626C126.638 7.96626 127.966 6.63822 127.966 5C127.966 3.36178 126.638 2.03374 125 2.03374C123.362 2.03374 122.034 3.36178 122.034 5C122.034 6.63822 123.362 7.96626 125 7.96626Z" fill="#223AA3" fill-opacity="0.05"/>
<path d="M125 18.0371C126.677 18.0371 128.037 16.6774 128.037 15C128.037 13.3226 126.677 11.9629 125 11.9629C123.323 11.9629 121.963 13.3226 121.963 15C121.963 16.6774 123.323 18.0371 125 18.0371Z" fill="#223AA3" fill-opacity="0.05"/>
<path d="M125 28.0419C126.68 28.0419 128.042 26.68 128.042 25C128.042 23.32 126.68 21.9581 125 21.9581C123.32 21.9581 121.958 23.32 121.958 25C121.958 26.68 123.32 28.0419 125 28.0419Z" fill="#223AA3" fill-opacity="0.05"/>
<path d="M125 37.992C126.652 37.992 127.992 36.6524 127.992 35C127.992 33.3476 126.652 32.008 125 32.008C123.348 32.008 122.008 33.3476 122.008 35C122.008 36.6524 123.348 37.992 125 37.992Z" fill="#223AA3" fill-opacity="0.05"/>
<path d="M125 47.9048C126.604 47.9048 127.905 46.6043 127.905 45C127.905 43.3957 126.604 42.0952 125 42.0952C123.396 42.0952 122.095 43.3957 122.095 45C122.095 46.6043 123.396 47.9048 125 47.9048Z" fill="#223AA3" fill-opacity="0.05"/>
<path d="M125 57.7813C126.536 57.7813 127.781 56.536 127.781 55C127.781 53.464 126.536 52.2188 125 52.2188C123.464 52.2188 122.219 53.464 122.219 55C122.219 56.536 123.464 57.7813 125 57.7813Z" fill="#223AA3" fill-opacity="0.05"/>
<path d="M125 67.6212C126.448 67.6212 127.621 66.4476 127.621 65C127.621 63.5524 126.448 62.3788 125 62.3788C123.552 62.3788 122.379 63.5524 122.379 65C122.379 66.4476 123.552 67.6212 125 67.6212Z" fill="#223AA3" fill-opacity="0.05"/>
<path d="M125 77.4646C126.361 77.4646 127.465 76.3612 127.465 75C127.465 73.6388 126.361 72.5354 125 72.5354C123.639 72.5354 122.535 73.6388 122.535 75C122.535 76.3612 123.639 77.4646 125 77.4646Z" fill="#223AA3" fill-opacity="0.05"/>
<path d="M125 87.3592C126.303 87.3592 127.359 86.3029 127.359 85C127.359 83.6971 126.303 82.6408 125 82.6408C123.697 82.6408 122.641 83.6971 122.641 85C122.641 86.3029 123.697 87.3592 125 87.3592Z" fill="#223AA3" fill-opacity="0.05"/>
<path d="M125 97.3332C126.288 97.3332 127.333 96.2886 127.333 95C127.333 93.7114 126.288 92.6668 125 92.6668C123.711 92.6668 122.667 93.7114 122.667 95C122.667 96.2886 123.711 97.3332 125 97.3332Z" fill="#223AA3" fill-opacity="0.05"/>
<path d="M125 107.388C126.319 107.388 127.388 106.319 127.388 105C127.388 103.681 126.319 102.612 125 102.612C123.681 102.612 122.612 103.681 122.612 105C122.612 106.319 123.681 107.388 125 107.388Z" fill="#223AA3" fill-opacity="0.05"/>
<path d="M125 117.502C126.382 117.502 127.502 116.382 127.502 115C127.502 113.618 126.382 112.498 125 112.498C123.619 112.498 122.499 113.618 122.499 115C122.499 116.382 123.619 117.502 125 117.502Z" fill="#223AA3" fill-opacity="0.05"/>
<path d="M125 127.633C126.454 127.633 127.633 126.454 127.633 125C127.633 123.546 126.454 122.367 125 122.367C123.546 122.367 122.367 123.546 122.367 125C122.367 126.454 123.546 127.633 125 127.633Z" fill="#223AA3" fill-opacity="0.05"/>
<path d="M125 137.742C126.515 137.742 127.742 136.515 127.742 135C127.742 133.485 126.515 132.258 125 132.258C123.486 132.258 122.258 133.485 122.258 135C122.258 136.515 123.486 137.742 125 137.742Z" fill="#223AA3" fill-opacity="0.05"/>
<path d="M125 147.807C126.55 147.807 127.807 146.55 127.807 145C127.807 143.45 126.55 142.193 125 142.193C123.45 142.193 122.193 143.45 122.193 145C122.193 146.55 123.45 147.807 125 147.807Z" fill="#223AA3" fill-opacity="0.05"/>
<path d="M125 157.818C126.556 157.818 127.818 156.556 127.818 155C127.818 153.444 126.556 152.182 125 152.182C123.444 152.182 122.182 153.444 122.182 155C122.182 156.556 123.444 157.818 125 157.818Z" fill="#223AA3" fill-opacity="0.05"/>
<path d="M125 167.771C126.531 167.771 127.771 166.531 127.771 165C127.771 163.469 126.531 162.229 125 162.229C123.469 162.229 122.229 163.469 122.229 165C122.229 166.531 123.469 167.771 125 167.771Z" fill="#223AA3" fill-opacity="0.05"/>
<path d="M125 177.68C126.48 177.68 127.68 176.48 127.68 175C127.68 173.52 126.48 172.32 125 172.32C123.52 172.32 122.32 173.52 122.32 175C122.32 176.48 123.52 177.68 125 177.68Z" fill="#223AA3" fill-opacity="0.05"/>
<path d="M125 187.574C126.422 187.574 127.574 186.422 127.574 185C127.574 183.578 126.422 182.426 125 182.426C123.578 182.426 122.426 183.578 122.426 185C122.426 186.422 123.578 187.574 125 187.574Z" fill="#223AA3" fill-opacity="0.05"/>
<path d="M125 197.495C126.378 197.495 127.495 196.378 127.495 195C127.495 193.622 126.378 192.505 125 192.505C123.622 192.505 122.505 193.622 122.505 195C122.505 196.378 123.622 197.495 125 197.495Z" fill="#223AA3" fill-opacity="0.05"/>
<path d="M135 7.83984C136.568 7.83984 137.84 6.5684 137.84 5C137.84 3.43159 136.568 2.16015 135 2.16015C133.432 2.16015 132.16 3.43159 132.16 5C132.16 6.5684 133.432 7.83984 135 7.83984Z" fill="#223AA3" fill-opacity="0.05"/>
<path d="M135 17.965C136.638 17.965 137.965 16.6376 137.965 15C137.965 13.3625 136.638 12.035 135 12.035C133.362 12.035 132.035 13.3625 132.035 15C132.035 16.6376 133.362 17.965 135 17.965Z" fill="#223AA3" fill-opacity="0.05"/>
<path d="M135 28.0653C136.693 28.0653 138.065 26.6929 138.065 25C138.065 23.3071 136.693 21.9347 135 21.9347C133.307 21.9347 131.935 23.3071 131.935 25C131.935 26.6929 133.307 28.0653 135 28.0653Z" fill="#223AA3" fill-opacity="0.05"/>
<path d="M135 38.1371C136.732 38.1371 138.137 36.7326 138.137 35C138.137 33.2674 136.732 31.8629 135 31.8629C133.267 31.8629 131.863 33.2674 131.863 35C131.863 36.7326 133.267 38.1371 135 38.1371Z" fill="#223AA3" fill-opacity="0.05"/>
<path d="M135 48.1552C136.742 48.1552 138.155 46.7425 138.155 45C138.155 43.2575 136.742 41.8448 135 41.8448C133.257 41.8448 131.845 43.2575 131.845 45C131.845 46.7425 133.257 48.1552 135 48.1552Z" fill="#223AA3" fill-opacity="0.05"/>
<path d="M135 58.0891C136.706 58.0891 138.089 56.7061 138.089 55C138.089 53.2939 136.706 51.9109 135 51.9109C133.294 51.9109 131.911 53.2939 131.911 55C131.911 56.7061 133.294 58.0891 135 58.0891Z" fill="#223AA3" fill-opacity="0.05"/>
<path d="M135 67.9433C136.625 67.9433 137.943 66.6255 137.943 65C137.943 63.3745 136.625 62.0567 135 62.0567C133.374 62.0567 132.057 63.3745 132.057 65C132.057 66.6255 133.374 67.9433 135 67.9433Z" fill="#223AA3" fill-opacity="0.05"/>
<path d="M135 77.7564C136.522 77.7564 137.756 76.5223 137.756 75C137.756 73.4777 136.522 72.2436 135 72.2436C133.478 72.2436 132.244 73.4777 132.244 75C132.244 76.5223 133.478 77.7564 135 77.7564Z" fill="#223AA3" fill-opacity="0.05"/>
<path d="M135 87.5717C136.42 87.5717 137.572 86.4203 137.572 85C137.572 83.5797 136.42 82.4283 135 82.4283C133.58 82.4283 132.428 83.5797 132.428 85C132.428 86.4203 133.58 87.5717 135 87.5717Z" fill="#223AA3" fill-opacity="0.05"/>
<path d="M135 97.4239C136.339 97.4239 137.424 96.3387 137.424 95C137.424 93.6613 136.339 92.5761 135 92.5761C133.661 92.5761 132.576 93.6613 132.576 95C132.576 96.3387 133.661 97.4239 135 97.4239Z" fill="#223AA3" fill-opacity="0.05"/>
<path d="M135 107.333C136.288 107.333 137.333 106.288 137.333 105C137.333 103.712 136.288 102.667 135 102.667C133.712 102.667 132.667 103.712 132.667 105C132.667 106.288 133.712 107.333 135 107.333Z" fill="#223AA3" fill-opacity="0.05"/>
<path d="M135 117.301C136.271 117.301 137.301 116.271 137.301 115C137.301 113.729 136.271 112.699 135 112.699C133.729 112.699 132.698 113.729 132.698 115C132.698 116.271 133.729 117.301 135 117.301Z" fill="#223AA3" fill-opacity="0.05"/>
<path d="M135 127.313C136.278 127.313 137.313 126.278 137.313 125C137.313 123.722 136.278 122.687 135 122.687C133.722 122.687 132.687 123.722 132.687 125C132.687 126.278 133.722 127.313 135 127.313Z" fill="#223AA3" fill-opacity="0.05"/>
<path d="M135 137.34C136.292 137.34 137.34 136.292 137.34 135C137.34 133.708 136.292 132.66 135 132.66C133.708 132.66 132.66 133.708 132.66 135C132.66 136.292 133.708 137.34 135 137.34Z" fill="#223AA3" fill-opacity="0.05"/>
<path d="M135 147.357C136.302 147.357 137.357 146.302 137.357 145C137.357 143.698 136.302 142.643 135 142.643C133.698 142.643 132.643 143.698 132.643 145C132.643 146.302 133.698 147.357 135 147.357Z" fill="#223AA3" fill-opacity="0.05"/>
<path d="M135 157.36C136.303 157.36 137.36 156.303 137.36 155C137.36 153.697 136.303 152.64 135 152.64C133.697 152.64 132.64 153.697 132.64 155C132.64 156.303 133.697 157.36 135 157.36Z" fill="#223AA3" fill-opacity="0.05"/>
<path d="M135 167.348C136.297 167.348 137.348 166.297 137.348 165C137.348 163.703 136.297 162.652 135 162.652C133.703 162.652 132.652 163.703 132.652 165C132.652 166.297 133.703 167.348 135 167.348Z" fill="#223AA3" fill-opacity="0.05"/>
<path d="M135 177.324C136.283 177.324 137.324 176.283 137.324 175C137.324 173.717 136.283 172.676 135 172.676C133.717 172.676 132.676 173.717 132.676 175C132.676 176.283 133.717 177.324 135 177.324Z" fill="#223AA3" fill-opacity="0.05"/>
<path d="M135 187.308C136.275 187.308 137.308 186.275 137.308 185C137.308 183.725 136.275 182.692 135 182.692C133.725 182.692 132.692 183.725 132.692 185C132.692 186.275 133.725 187.308 135 187.308Z" fill="#223AA3" fill-opacity="0.05"/>
<path d="M135 197.336C136.29 197.336 137.336 196.29 137.336 195C137.336 193.71 136.29 192.664 135 192.664C133.71 192.664 132.665 193.71 132.665 195C132.665 196.29 133.71 197.336 135 197.336Z" fill="#223AA3" fill-opacity="0.05"/>
<path d="M145 7.65204C146.465 7.65204 147.652 6.46468 147.652 5C147.652 3.53532 146.465 2.34797 145 2.34797C143.535 2.34797 142.348 3.53532 142.348 5C142.348 6.46468 143.535 7.65204 145 7.65204Z" fill="#223AA3" fill-opacity="0.05"/>
<path d="M145 17.7992C146.546 17.7992 147.799 16.5459 147.799 15C147.799 13.4541 146.546 12.2008 145 12.2008C143.454 12.2008 142.201 13.4541 142.201 15C142.201 16.5459 143.454 17.7992 145 17.7992Z" fill="#223AA3" fill-opacity="0.05"/>
<path d="M145 27.9232C146.615 27.9232 147.923 26.6144 147.923 25C147.923 23.3856 146.615 22.0768 145 22.0768C143.386 22.0768 142.077 23.3856 142.077 25C142.077 26.6144 143.386 27.9232 145 27.9232Z" fill="#223AA3" fill-opacity="0.05"/>
<path d="M145 38.0265C146.672 38.0265 148.027 36.6715 148.027 35C148.027 33.3285 146.672 31.9735 145 31.9735C143.329 31.9735 141.974 33.3285 141.974 35C141.974 36.6715 143.329 38.0265 145 38.0265Z" fill="#223AA3" fill-opacity="0.05"/>
<path d="M145 48.0774C146.7 48.0774 148.077 46.6996 148.077 45C148.077 43.3004 146.7 41.9226 145 41.9226C143.3 41.9226 141.923 43.3004 141.923 45C141.923 46.6996 143.3 48.0774 145 48.0774Z" fill="#223AA3" fill-opacity="0.05"/>
<path d="M145 58.0459C146.682 58.0459 148.046 56.6822 148.046 55C148.046 53.3178 146.682 51.9541 145 51.9541C143.318 51.9541 141.954 53.3178 141.954 55C141.954 56.6822 143.318 58.0459 145 58.0459Z" fill="#223AA3" fill-opacity="0.05"/>
<path d="M145 67.9369C146.622 67.9369 147.937 66.622 147.937 65C147.937 63.378 146.622 62.0631 145 62.0631C143.378 62.0631 142.063 63.378 142.063 65C142.063 66.622 143.378 67.9369 145 67.9369Z" fill="#223AA3" fill-opacity="0.05"/>
<path d="M145 77.7717C146.531 77.7717 147.772 76.5308 147.772 75C147.772 73.4692 146.531 72.2283 145 72.2283C143.469 72.2283 142.228 73.4692 142.228 75C142.228 76.5308 143.469 77.7717 145 77.7717Z" fill="#223AA3" fill-opacity="0.05"/>
<path d="M145 87.5752C146.422 87.5752 147.575 86.4223 147.575 85C147.575 83.5777 146.422 82.4248 145 82.4248C143.578 82.4248 142.425 83.5777 142.425 85C142.425 86.4223 143.578 87.5752 145 87.5752Z" fill="#223AA3" fill-opacity="0.05"/>
<path d="M145 97.3739C146.311 97.3739 147.374 96.3111 147.374 95C147.374 93.6889 146.311 92.6261 145 92.6261C143.689 92.6261 142.626 93.6889 142.626 95C142.626 96.3111 143.689 97.3739 145 97.3739Z" fill="#223AA3" fill-opacity="0.05"/>
<path d="M145 107.193C146.211 107.193 147.193 106.211 147.193 105C147.193 103.789 146.211 102.807 145 102.807C143.789 102.807 142.807 103.789 142.807 105C142.807 106.211 143.789 107.193 145 107.193Z" fill="#223AA3" fill-opacity="0.05"/>
<path d="M145 117.052C146.133 117.052 147.052 116.133 147.052 115C147.052 113.867 146.133 112.948 145 112.948C143.867 112.948 142.948 113.867 142.948 115C142.948 116.133 143.867 117.052 145 117.052Z" fill="#223AA3" fill-opacity="0.05"/>
<path d="M145 126.956C146.08 126.956 146.956 126.08 146.956 125C146.956 123.92 146.08 123.044 145 123.044C143.92 123.044 143.044 123.92 143.044 125C143.044 126.08 143.92 126.956 145 126.956Z" fill="#223AA3" fill-opacity="0.05"/>
<path d="M145 136.896C146.047 136.896 146.896 136.047 146.896 135C146.896 133.953 146.047 133.104 145 133.104C143.953 133.104 143.104 133.953 143.104 135C143.104 136.047 143.953 136.896 145 136.896Z" fill="#223AA3" fill-opacity="0.05"/>
<path d="M145 146.863C146.029 146.863 146.862 146.029 146.862 145C146.862 143.971 146.029 143.137 145 143.137C143.971 143.137 143.137 143.971 143.137 145C143.137 146.029 143.971 146.863 145 146.863Z" fill="#223AA3" fill-opacity="0.05"/>
<path d="M145 156.857C146.026 156.857 146.857 156.026 146.857 155C146.857 153.974 146.026 153.143 145 153.143C143.974 153.143 143.143 153.974 143.143 155C143.143 156.026 143.974 156.857 145 156.857Z" fill="#223AA3" fill-opacity="0.05"/>
<path d="M145 166.881C146.039 166.881 146.881 166.039 146.881 165C146.881 163.961 146.039 163.119 145 163.119C143.961 163.119 143.119 163.961 143.119 165C143.119 166.039 143.961 166.881 145 166.881Z" fill="#223AA3" fill-opacity="0.05"/>
<path d="M145 176.93C146.066 176.93 146.93 176.066 146.93 175C146.93 173.934 146.066 173.07 145 173.07C143.934 173.07 143.07 173.934 143.07 175C143.07 176.066 143.934 176.93 145 176.93Z" fill="#223AA3" fill-opacity="0.05"/>
<path d="M145 187.013C146.112 187.013 147.013 186.112 147.013 185C147.013 183.888 146.112 182.987 145 182.987C143.888 182.987 142.987 183.888 142.987 185C142.987 186.112 143.888 187.013 145 187.013Z" fill="#223AA3" fill-opacity="0.05"/>
<path d="M145 197.156C146.191 197.156 147.156 196.191 147.156 195C147.156 193.809 146.191 192.844 145 192.844C143.809 192.844 142.844 193.809 142.844 195C142.844 196.191 143.809 197.156 145 197.156Z" fill="#223AA3" fill-opacity="0.05"/>
<path d="M155 7.39543C156.323 7.39543 157.395 6.32296 157.395 5C157.395 3.67705 156.323 2.60458 155 2.60458C153.677 2.60458 152.604 3.67705 152.604 5C152.604 6.32296 153.677 7.39543 155 7.39543Z" fill="#223AA3" fill-opacity="0.05"/>
<path d="M155 17.5389C156.402 17.5389 157.539 16.4022 157.539 15C157.539 13.5978 156.402 12.4611 155 12.4611C153.598 12.4611 152.461 13.5978 152.461 15C152.461 16.4022 153.598 17.5389 155 17.5389Z" fill="#223AA3" fill-opacity="0.05"/>
<path d="M155 27.6382C156.457 27.6382 157.638 26.4571 157.638 25C157.638 23.5429 156.457 22.3618 155 22.3618C153.543 22.3618 152.362 23.5429 152.362 25C152.362 26.4571 153.543 27.6382 155 27.6382Z" fill="#223AA3" fill-opacity="0.05"/>
<path d="M155 37.7121C156.498 37.7121 157.712 36.4979 157.712 35C157.712 33.5021 156.498 32.2879 155 32.2879C153.502 32.2879 152.288 33.5021 152.288 35C152.288 36.4979 153.502 37.7121 155 37.7121Z" fill="#223AA3" fill-opacity="0.05"/>
<path d="M155 47.7453C156.516 47.7453 157.745 46.5162 157.745 45C157.745 43.4838 156.516 42.2547 155 42.2547C153.484 42.2547 152.255 43.4838 152.255 45C152.255 46.5162 153.484 47.7453 155 47.7453Z" fill="#223AA3" fill-opacity="0.05"/>
<path d="M155 57.7284C156.507 57.7284 157.728 56.5068 157.728 55C157.728 53.4932 156.507 52.2716 155 52.2716C153.493 52.2716 152.272 53.4932 152.272 55C152.272 56.5068 153.493 57.7284 155 57.7284Z" fill="#223AA3" fill-opacity="0.05"/>
<path d="M155 67.6647C156.472 67.6647 157.665 66.4717 157.665 65C157.665 63.5283 156.472 62.3353 155 62.3353C153.528 62.3353 152.335 63.5283 152.335 65C152.335 66.4717 153.528 67.6647 155 67.6647Z" fill="#223AA3" fill-opacity="0.05"/>
<path d="M155 77.56C156.414 77.56 157.56 76.4139 157.56 75C157.56 73.5861 156.414 72.44 155 72.44C153.586 72.44 152.44 73.5861 152.44 75C152.44 76.4139 153.586 77.56 155 77.56Z" fill="#223AA3" fill-opacity="0.05"/>
<path d="M155 87.4147C156.334 87.4147 157.415 86.3336 157.415 85C157.415 83.6664 156.334 82.5853 155 82.5853C153.667 82.5853 152.585 83.6664 152.585 85C152.585 86.3336 153.667 87.4147 155 87.4147Z" fill="#223AA3" fill-opacity="0.05"/>
<path d="M155 97.2339C156.234 97.2339 157.234 96.2338 157.234 95C157.234 93.7662 156.234 92.7661 155 92.7661C153.766 92.7661 152.766 93.7662 152.766 95C152.766 96.2338 153.766 97.2339 155 97.2339Z" fill="#223AA3" fill-opacity="0.05"/>
<path d="M155 107.034C156.123 107.034 157.034 106.123 157.034 105C157.034 103.877 156.123 102.966 155 102.966C153.877 102.966 152.966 103.877 152.966 105C152.966 106.123 153.877 107.034 155 107.034Z" fill="#223AA3" fill-opacity="0.05"/>
<path d="M155 116.836C156.014 116.836 156.836 116.014 156.836 115C156.836 113.986 156.014 113.164 155 113.164C153.986 113.164 153.164 113.986 153.164 115C153.164 116.014 153.986 116.836 155 116.836Z" fill="#223AA3" fill-opacity="0.05"/>
<path d="M155 126.663C155.919 126.663 156.663 125.919 156.663 125C156.663 124.081 155.919 123.337 155 123.337C154.082 123.337 153.337 124.081 153.337 125C153.337 125.919 154.082 126.663 155 126.663Z" fill="#223AA3" fill-opacity="0.05"/>
<path d="M155 136.531C155.846 136.531 156.531 135.846 156.531 135C156.531 134.154 155.846 133.469 155 133.469C154.154 133.469 153.469 134.154 153.469 135C153.469 135.846 154.154 136.531 155 136.531Z" fill="#223AA3" fill-opacity="0.05"/>
<path d="M155 146.453C155.803 146.453 156.453 145.803 156.453 145C156.453 144.197 155.803 143.547 155 143.547C154.197 143.547 153.547 144.197 153.547 145C153.547 145.803 154.197 146.453 155 146.453Z" fill="#223AA3" fill-opacity="0.05"/>
<path d="M155 156.441C155.796 156.441 156.441 155.796 156.441 155C156.441 154.204 155.796 153.559 155 153.559C154.204 153.559 153.559 154.204 153.559 155C153.559 155.796 154.204 156.441 155 156.441Z" fill="#223AA3" fill-opacity="0.05"/>
<path d="M155 166.497C155.827 166.497 156.497 165.827 156.497 165C156.497 164.173 155.827 163.503 155 163.503C154.173 163.503 153.503 164.173 153.503 165C153.503 165.827 154.173 166.497 155 166.497Z" fill="#223AA3" fill-opacity="0.05"/>
<path d="M155 176.623C155.896 176.623 156.623 175.896 156.623 175C156.623 174.104 155.896 173.377 155 173.377C154.104 173.377 153.377 174.104 153.377 175C153.377 175.896 154.104 176.623 155 176.623Z" fill="#223AA3" fill-opacity="0.05"/>
<path d="M155 186.817C156.004 186.817 156.817 186.004 156.817 185C156.817 183.996 156.004 183.183 155 183.183C153.996 183.183 153.183 183.996 153.183 185C153.183 186.004 153.996 186.817 155 186.817Z" fill="#223AA3" fill-opacity="0.05"/>
<path d="M155 197.077C156.147 197.077 157.077 196.147 157.077 195C157.077 193.853 156.147 192.923 155 192.923C153.853 192.923 152.923 193.853 152.923 195C152.923 196.147 153.853 197.077 155 197.077Z" fill="#223AA3" fill-opacity="0.05"/>
<path d="M165 7.09592C166.158 7.09592 167.096 6.15755 167.096 5C167.096 3.84246 166.158 2.90408 165 2.90408C163.842 2.90408 162.904 3.84246 162.904 5C162.904 6.15755 163.842 7.09592 165 7.09592Z" fill="#223AA3" fill-opacity="0.05"/>
<path d="M165 17.2105C166.221 17.2105 167.211 16.2208 167.211 15C167.211 13.7792 166.221 12.7895 165 12.7895C163.779 12.7895 162.79 13.7792 162.79 15C162.79 16.2208 163.779 17.2105 165 17.2105Z" fill="#223AA3" fill-opacity="0.05"/>
<path d="M165 27.2517C166.243 27.2517 167.252 26.2436 167.252 25C167.252 23.7565 166.243 22.7484 165 22.7484C163.756 22.7484 162.748 23.7565 162.748 25C162.748 26.2436 163.756 27.2517 165 27.2517Z" fill="#223AA3" fill-opacity="0.05"/>
<path d="M165 37.2633C166.25 37.2633 167.263 36.25 167.263 35C167.263 33.75 166.25 32.7367 165 32.7367C163.75 32.7367 162.737 33.75 162.737 35C162.737 36.25 163.75 37.2633 165 37.2633Z" fill="#223AA3" fill-opacity="0.05"/>
<path d="M165 47.268C166.253 47.268 167.268 46.2526 167.268 45C167.268 43.7474 166.253 42.732 165 42.732C163.747 42.732 162.732 43.7474 162.732 45C162.732 46.2526 163.747 47.268 165 47.268Z" fill="#223AA3" fill-opacity="0.05"/>
<path d="M165 57.2656C166.251 57.2656 167.266 56.2513 167.266 55C167.266 53.7487 166.251 52.7344 165 52.7344C163.749 52.7344 162.734 53.7487 162.734 55C162.734 56.2513 163.749 57.2656 165 57.2656Z" fill="#223AA3" fill-opacity="0.05"/>
<path d="M165 67.2566C166.246 67.2566 167.257 66.2463 167.257 65C167.257 63.7537 166.246 62.7434 165 62.7434C163.754 62.7434 162.743 63.7537 162.743 65C162.743 66.2463 163.754 67.2566 165 67.2566Z" fill="#223AA3" fill-opacity="0.05"/>
<path d="M165 77.2368C166.235 77.2368 167.237 76.2353 167.237 75C167.237 73.7647 166.235 72.7632 165 72.7632C163.765 72.7632 162.763 73.7647 162.763 75C162.763 76.2353 163.765 77.2368 165 77.2368Z" fill="#223AA3" fill-opacity="0.05"/>
<path d="M165 87.187C166.208 87.187 167.187 86.2079 167.187 85C167.187 83.7921 166.208 82.813 165 82.813C163.792 82.813 162.813 83.7921 162.813 85C162.813 86.2079 163.792 87.187 165 87.187Z" fill="#223AA3" fill-opacity="0.05"/>
<path d="M165 97.0911C166.155 97.0911 167.091 96.1549 167.091 95C167.091 93.8451 166.155 92.9089 165 92.9089C163.845 92.9089 162.909 93.8451 162.909 95C162.909 96.1549 163.845 97.0911 165 97.0911Z" fill="#223AA3" fill-opacity="0.05"/>
<path d="M165 106.943C166.073 106.943 166.943 106.073 166.943 105C166.943 103.927 166.073 103.057 165 103.057C163.927 103.057 163.057 103.927 163.057 105C163.057 106.073 163.927 106.943 165 106.943Z" fill="#223AA3" fill-opacity="0.05"/>
<path d="M165 116.752C165.968 116.752 166.752 115.968 166.752 115C166.752 114.032 165.968 113.248 165 113.248C164.032 113.248 163.248 114.032 163.248 115C163.248 115.968 164.032 116.752 165 116.752Z" fill="#223AA3" fill-opacity="0.05"/>
<path d="M165 126.545C165.853 126.545 166.545 125.853 166.545 125C166.545 124.147 165.853 123.455 165 123.455C164.147 123.455 163.455 124.147 163.455 125C163.455 125.853 164.147 126.545 165 126.545Z" fill="#223AA3" fill-opacity="0.05"/>
<path d="M165 136.362C165.752 136.362 166.362 135.752 166.362 135C166.362 134.248 165.752 133.638 165 133.638C164.248 133.638 163.638 134.248 163.638 135C163.638 135.752 164.248 136.362 165 136.362Z" fill="#223AA3" fill-opacity="0.05"/>
<path d="M165 146.243C165.686 146.243 166.243 145.687 166.243 145C166.243 144.313 165.686 143.757 165 143.757C164.313 143.757 163.757 144.313 163.757 145C163.757 145.687 164.313 146.243 165 146.243Z" fill="#223AA3" fill-opacity="0.05"/>
<path d="M165 156.217C165.672 156.217 166.217 155.672 166.217 155C166.217 154.328 165.672 153.783 165 153.783C164.328 153.783 163.782 154.328 163.782 155C163.782 155.672 164.328 156.217 165 156.217Z" fill="#223AA3" fill-opacity="0.05"/>
<path d="M165 166.301C165.718 166.301 166.301 165.719 166.301 165C166.301 164.281 165.718 163.699 165 163.699C164.281 163.699 163.699 164.281 163.699 165C163.699 165.719 164.281 166.301 165 166.301Z" fill="#223AA3" fill-opacity="0.05"/>
<path d="M165 176.501C165.829 176.501 166.501 175.829 166.501 175C166.501 174.171 165.829 173.499 165 173.499C164.171 173.499 163.499 174.171 163.499 175C163.499 175.829 164.171 176.501 165 176.501Z" fill="#223AA3" fill-opacity="0.05"/>
<path d="M165 186.799C165.993 186.799 166.799 185.993 166.799 185C166.799 184.007 165.993 183.201 165 183.201C164.006 183.201 163.201 184.007 163.201 185C163.201 185.993 164.006 186.799 165 186.799Z" fill="#223AA3" fill-opacity="0.05"/>
<path d="M165 197.153C166.189 197.153 167.153 196.189 167.153 195C167.153 193.811 166.189 192.847 165 192.847C163.811 192.847 162.847 193.811 162.847 195C162.847 196.189 163.811 197.153 165 197.153Z" fill="#223AA3" fill-opacity="0.05"/>
<path d="M175 6.80592C175.997 6.80592 176.806 5.99738 176.806 5C176.806 4.00262 175.997 3.19408 175 3.19408C174.003 3.19408 173.194 4.00262 173.194 5C173.194 5.99738 174.003 6.80592 175 6.80592Z" fill="#223AA3" fill-opacity="0.05"/>
<path d="M175 16.8738C176.035 16.8738 176.874 16.0349 176.874 15C176.874 13.9651 176.035 13.1262 175 13.1262C173.965 13.1262 173.126 13.9651 173.126 15C173.126 16.0349 173.965 16.8738 175 16.8738Z" fill="#223AA3" fill-opacity="0.05"/>
<path d="M175 26.8476C176.02 26.8476 176.847 26.0204 176.847 25C176.847 23.9796 176.02 23.1524 175 23.1524C173.98 23.1524 173.152 23.9796 173.152 25C173.152 26.0204 173.98 26.8476 175 26.8476Z" fill="#223AA3" fill-opacity="0.05"/>
<path d="M175 36.7943C175.991 36.7943 176.794 35.991 176.794 35C176.794 34.009 175.991 33.2057 175 33.2057C174.009 33.2057 173.206 34.009 173.206 35C173.206 35.991 174.009 36.7943 175 36.7943Z" fill="#223AA3" fill-opacity="0.05"/>
<path d="M175 46.7697C175.977 46.7697 176.77 45.9774 176.77 45C176.77 44.0226 175.977 43.2303 175 43.2303C174.023 43.2303 173.23 44.0226 173.23 45C173.23 45.9774 174.023 46.7697 175 46.7697Z" fill="#223AA3" fill-opacity="0.05"/>
<path d="M175 56.7822C175.984 56.7822 176.782 55.9843 176.782 55C176.782 54.0157 175.984 53.2178 175 53.2178C174.016 53.2178 173.218 54.0157 173.218 55C173.218 55.9843 174.016 56.7822 175 56.7822Z" fill="#223AA3" fill-opacity="0.05"/>
<path d="M175 66.8298C176.011 66.8298 176.83 66.0106 176.83 65C176.83 63.9894 176.011 63.1702 175 63.1702C173.989 63.1702 173.17 63.9894 173.17 65C173.17 66.0106 173.989 66.8298 175 66.8298Z" fill="#223AA3" fill-opacity="0.05"/>
<path d="M175 76.9105C176.055 76.9105 176.911 76.0551 176.911 75C176.911 73.9449 176.055 73.0895 175 73.0895C173.945 73.0895 173.09 73.9449 173.09 75C173.09 76.0551 173.945 76.9105 175 76.9105Z" fill="#223AA3" fill-opacity="0.05"/>
<path d="M175 87.0052C176.107 87.0052 177.005 86.1074 177.005 85C177.005 83.8926 176.107 82.9948 175 82.9948C173.893 82.9948 172.995 83.8926 172.995 85C172.995 86.1074 173.893 87.0052 175 87.0052Z" fill="#223AA3" fill-opacity="0.05"/>
<path d="M175 97.0635C176.14 97.0635 177.063 96.1396 177.063 95C177.063 93.8604 176.14 92.9365 175 92.9365C173.86 92.9365 172.937 93.8604 172.937 95C172.937 96.1396 173.86 97.0635 175 97.0635Z" fill="#223AA3" fill-opacity="0.05"/>
<path d="M175 107.036C176.125 107.036 177.036 106.125 177.036 105C177.036 103.875 176.125 102.964 175 102.964C173.875 102.964 172.964 103.875 172.964 105C172.964 106.125 173.875 107.036 175 107.036Z" fill="#223AA3" fill-opacity="0.05"/>
<path d="M175 116.906C176.053 116.906 176.906 116.053 176.906 115C176.906 113.947 176.053 113.094 175 113.094C173.947 113.094 173.094 113.947 173.094 115C173.094 116.053 173.947 116.906 175 116.906Z" fill="#223AA3" fill-opacity="0.05"/>
<path d="M175 126.699C175.938 126.699 176.699 125.938 176.699 125C176.699 124.062 175.938 123.301 175 123.301C174.062 123.301 173.301 124.062 173.301 125C173.301 125.938 174.062 126.699 175 126.699Z" fill="#223AA3" fill-opacity="0.05"/>
<path d="M175 136.477C175.816 136.477 176.477 135.816 176.477 135C176.477 134.184 175.816 133.523 175 133.523C174.184 133.523 173.523 134.184 173.523 135C173.523 135.816 174.184 136.477 175 136.477Z" fill="#223AA3" fill-opacity="0.05"/>
<path d="M175 146.31C175.724 146.31 176.31 145.724 176.31 145C176.31 144.276 175.724 143.69 175 143.69C174.277 143.69 173.69 144.276 173.69 145C173.69 145.724 174.277 146.31 175 146.31Z" fill="#223AA3" fill-opacity="0.05"/>
<path d="M175 156.252C175.692 156.252 176.252 155.692 176.252 155C176.252 154.308 175.692 153.748 175 153.748C174.308 153.748 173.748 154.308 173.748 155C173.748 155.692 174.308 156.252 175 156.252Z" fill="#223AA3" fill-opacity="0.05"/>
<path d="M175 166.341C175.741 166.341 176.341 165.741 176.341 165C176.341 164.259 175.741 163.659 175 163.659C174.26 163.659 173.659 164.259 173.659 165C173.659 165.741 174.26 166.341 175 166.341Z" fill="#223AA3" fill-opacity="0.05"/>
<path d="M175 176.582C175.874 176.582 176.582 175.874 176.582 175C176.582 174.126 175.874 173.418 175 173.418C174.126 173.418 173.418 174.126 173.418 175C173.418 175.874 174.126 176.582 175 176.582Z" fill="#223AA3" fill-opacity="0.05"/>
<path d="M175 186.938C176.07 186.938 176.938 186.07 176.938 185C176.938 183.93 176.07 183.062 175 183.062C173.93 183.062 173.062 183.93 173.062 185C173.062 186.07 173.93 186.938 175 186.938Z" fill="#223AA3" fill-opacity="0.05"/>
<path d="M175 197.338C176.291 197.338 177.338 196.291 177.338 195C177.338 193.709 176.291 192.662 175 192.662C173.709 192.662 172.662 193.709 172.662 195C172.662 196.291 173.709 197.338 175 197.338Z" fill="#223AA3" fill-opacity="0.05"/>
<path d="M185 6.59208C185.879 6.59208 186.592 5.87928 186.592 5C186.592 4.12072 185.879 3.40793 185 3.40793C184.121 3.40793 183.408 4.12072 183.408 5C183.408 5.87928 184.121 6.59208 185 6.59208Z" fill="#223AA3" fill-opacity="0.05"/>
<path d="M185 16.6144C185.892 16.6144 186.614 15.8916 186.614 15C186.614 14.1084 185.892 13.3856 185 13.3856C184.109 13.3856 183.386 14.1084 183.386 15C183.386 15.8916 184.109 16.6144 185 16.6144Z" fill="#223AA3" fill-opacity="0.05"/>
<path d="M185 26.5324C185.846 26.5324 186.532 25.8464 186.532 25C186.532 24.1537 185.846 23.4676 185 23.4676C184.154 23.4676 183.468 24.1537 183.468 25C183.468 25.8464 184.154 26.5324 185 26.5324Z" fill="#223AA3" fill-opacity="0.05"/>
<path d="M185 36.428C185.789 36.428 186.428 35.7887 186.428 35C186.428 34.2113 185.789 33.572 185 33.572C184.211 33.572 183.572 34.2113 183.572 35C183.572 35.7887 184.211 36.428 185 36.428Z" fill="#223AA3" fill-opacity="0.05"/>
<path d="M185 46.3799C185.762 46.3799 186.38 45.7621 186.38 45C186.38 44.2379 185.762 43.6201 185 43.6201C184.238 43.6201 183.62 44.2379 183.62 45C183.62 45.7621 184.238 46.3799 185 46.3799Z" fill="#223AA3" fill-opacity="0.05"/>
<path d="M185 56.4055C185.776 56.4055 186.405 55.7762 186.405 55C186.405 54.2238 185.776 53.5945 185 53.5945C184.224 53.5945 183.594 54.2238 183.594 55C183.594 55.7762 184.224 56.4055 185 56.4055Z" fill="#223AA3" fill-opacity="0.05"/>
<path d="M185 66.5152C185.837 66.5152 186.515 65.8368 186.515 65C186.515 64.1632 185.837 63.4848 185 63.4848C184.163 63.4848 183.485 64.1632 183.485 65C183.485 65.8368 184.163 66.5152 185 66.5152Z" fill="#223AA3" fill-opacity="0.05"/>
<path d="M185 76.7235C185.952 76.7235 186.724 75.9518 186.724 75C186.724 74.0482 185.952 73.2765 185 73.2765C184.048 73.2765 183.277 74.0482 183.277 75C183.277 75.9518 184.048 76.7235 185 76.7235Z" fill="#223AA3" fill-opacity="0.05"/>
<path d="M185 86.9955C186.102 86.9955 186.995 86.1021 186.995 85C186.995 83.8979 186.102 83.0045 185 83.0045C183.898 83.0045 183.004 83.8979 183.004 85C183.004 86.1021 183.898 86.9955 185 86.9955Z" fill="#223AA3" fill-opacity="0.05"/>
<path d="M185 97.2375C186.236 97.2375 187.237 96.2357 187.237 95C187.237 93.7643 186.236 92.7625 185 92.7625C183.764 92.7625 182.762 93.7643 182.762 95C182.762 96.2357 183.764 97.2375 185 97.2375Z" fill="#223AA3" fill-opacity="0.05"/>
<path d="M185 107.354C186.3 107.354 187.354 106.3 187.354 105C187.354 103.7 186.3 102.646 185 102.646C183.7 102.646 182.646 103.7 182.646 105C182.646 106.3 183.7 107.354 185 107.354Z" fill="#223AA3" fill-opacity="0.05"/>
<path d="M185 117.301C186.271 117.301 187.301 116.271 187.301 115C187.301 113.729 186.271 112.699 185 112.699C183.729 112.699 182.699 113.729 182.699 115C182.699 116.271 183.729 117.301 185 117.301Z" fill="#223AA3" fill-opacity="0.05"/>
<path d="M185 127.104C186.162 127.104 187.104 126.162 187.104 125C187.104 123.838 186.162 122.896 185 122.896C183.838 122.896 182.896 123.838 182.896 125C182.896 126.162 183.838 127.104 185 127.104Z" fill="#223AA3" fill-opacity="0.05"/>
<path d="M185 136.844C186.019 136.844 186.844 136.019 186.844 135C186.844 133.981 186.019 133.156 185 133.156C183.981 133.156 183.156 133.981 183.156 135C183.156 136.019 183.981 136.844 185 136.844Z" fill="#223AA3" fill-opacity="0.05"/>
<path d="M185 146.621C185.895 146.621 186.621 145.895 186.621 145C186.621 144.105 185.895 143.379 185 143.379C184.105 143.379 183.379 144.105 183.379 145C183.379 145.895 184.105 146.621 185 146.621Z" fill="#223AA3" fill-opacity="0.05"/>
<path d="M185 156.513C185.836 156.513 186.513 155.835 186.513 155C186.513 154.165 185.836 153.487 185 153.487C184.165 153.487 183.487 154.165 183.487 155C183.487 155.835 184.165 156.513 185 156.513Z" fill="#223AA3" fill-opacity="0.05"/>
<path d="M185 166.571C185.868 166.571 186.571 165.868 186.571 165C186.571 164.132 185.868 163.429 185 163.429C184.132 163.429 183.428 164.132 183.428 165C183.428 165.868 184.132 166.571 185 166.571Z" fill="#223AA3" fill-opacity="0.05"/>
<path d="M185 176.799C185.993 176.799 186.798 175.993 186.798 175C186.798 174.007 185.993 173.201 185 173.201C184.007 173.201 183.201 174.007 183.201 175C183.201 175.993 184.007 176.799 185 176.799Z" fill="#223AA3" fill-opacity="0.05"/>
<path d="M185 187.141C186.182 187.141 187.141 186.182 187.141 185C187.141 183.818 186.182 182.859 185 182.859C183.818 182.859 182.859 183.818 182.859 185C182.859 186.182 183.818 187.141 185 187.141Z" fill="#223AA3" fill-opacity="0.05"/>
<path d="M185 197.517C186.39 197.517 187.517 196.39 187.517 195C187.517 193.61 186.39 192.483 185 192.483C183.61 192.483 182.483 193.61 182.483 195C182.483 196.39 183.61 197.517 185 197.517Z" fill="#223AA3" fill-opacity="0.05"/>
<path d="M195 6.48609C195.821 6.48609 196.486 5.82075 196.486 5C196.486 4.17926 195.821 3.51392 195 3.51392C194.179 3.51392 193.514 4.17926 193.514 5C193.514 5.82075 194.179 6.48609 195 6.48609Z" fill="#223AA3" fill-opacity="0.05"/>
<path d="M195 16.4641C195.809 16.4641 196.464 15.8086 196.464 15C196.464 14.1914 195.809 13.5359 195 13.5359C194.191 13.5359 193.536 14.1914 193.536 15C193.536 15.8086 194.191 16.4641 195 16.4641Z" fill="#223AA3" fill-opacity="0.05"/>
<path d="M195 26.3421C195.741 26.3421 196.342 25.7412 196.342 25C196.342 24.2588 195.741 23.6579 195 23.6579C194.259 23.6579 193.658 24.2588 193.658 25C193.658 25.7412 194.259 26.3421 195 26.3421Z" fill="#223AA3" fill-opacity="0.05"/>
<path d="M195 36.2149C195.671 36.2149 196.215 35.6709 196.215 35C196.215 34.3291 195.671 33.7851 195 33.7851C194.329 33.7851 193.785 34.3291 193.785 35C193.785 35.6709 194.329 36.2149 195 36.2149Z" fill="#223AA3" fill-opacity="0.05"/>
<path d="M195 46.1698C195.646 46.1698 196.17 45.6461 196.17 45C196.17 44.3539 195.646 43.8302 195 43.8302C194.354 43.8302 193.83 44.3539 193.83 45C193.83 45.6461 194.354 46.1698 195 46.1698Z" fill="#223AA3" fill-opacity="0.05"/>
<path d="M195 56.2294C195.679 56.2294 196.229 55.679 196.229 55C196.229 54.321 195.679 53.7706 195 53.7706C194.321 53.7706 193.771 54.321 193.771 55C193.771 55.679 194.321 56.2294 195 56.2294Z" fill="#223AA3" fill-opacity="0.05"/>
<path d="M195 66.428C195.789 66.428 196.428 65.7887 196.428 65C196.428 64.2113 195.789 63.572 195 63.572C194.211 63.572 193.572 64.2113 193.572 65C193.572 65.7887 194.211 66.428 195 66.428Z" fill="#223AA3" fill-opacity="0.05"/>
<path d="M195 76.7733C195.979 76.7733 196.773 75.9794 196.773 75C196.773 74.0206 195.979 73.2267 195 73.2267C194.021 73.2267 193.227 74.0206 193.227 75C193.227 75.9794 194.021 76.7733 195 76.7733Z" fill="#223AA3" fill-opacity="0.05"/>
<path d="M195 87.2024C196.216 87.2024 197.202 86.2164 197.202 85C197.202 83.7836 196.216 82.7976 195 82.7976C193.784 82.7976 192.798 83.7836 192.798 85C192.798 86.2164 193.784 87.2024 195 87.2024Z" fill="#223AA3" fill-opacity="0.05"/>
<path d="M195 97.5912C196.431 97.5912 197.591 96.4311 197.591 95C197.591 93.5689 196.431 92.4088 195 92.4088C193.569 92.4088 192.409 93.5689 192.409 95C192.409 96.4311 193.569 97.5912 195 97.5912Z" fill="#223AA3" fill-opacity="0.05"/>
<path d="M195 107.814C196.554 107.814 197.814 106.554 197.814 105C197.814 103.446 196.554 102.186 195 102.186C193.446 102.186 192.186 103.446 192.186 105C192.186 106.554 193.446 107.814 195 107.814Z" fill="#223AA3" fill-opacity="0.05"/>
<path d="M195 117.809C196.551 117.809 197.809 116.551 197.809 115C197.809 113.449 196.551 112.191 195 112.191C193.449 112.191 192.191 113.449 192.191 115C192.191 116.551 193.449 117.809 195 117.809Z" fill="#223AA3" fill-opacity="0.05"/>
<path d="M195 127.606C196.439 127.606 197.606 126.439 197.606 125C197.606 123.561 196.439 122.394 195 122.394C193.561 122.394 192.394 123.561 192.394 125C192.394 126.439 193.561 127.606 195 127.606Z" fill="#223AA3" fill-opacity="0.05"/>
<path d="M195 137.304C196.273 137.304 197.305 136.273 197.305 135C197.305 133.727 196.273 132.696 195 132.696C193.727 132.696 192.696 133.727 192.696 135C192.696 136.273 193.727 137.304 195 137.304Z" fill="#223AA3" fill-opacity="0.05"/>
<path d="M195 147.022C196.117 147.022 197.022 146.117 197.022 145C197.022 143.883 196.117 142.978 195 142.978C193.883 142.978 192.978 143.883 192.978 145C192.978 146.117 193.883 147.022 195 147.022Z" fill="#223AA3" fill-opacity="0.05"/>
<path d="M195 156.853C196.024 156.853 196.853 156.023 196.853 155C196.853 153.977 196.024 153.147 195 153.147C193.977 153.147 193.147 153.977 193.147 155C193.147 156.023 193.977 156.853 195 156.853Z" fill="#223AA3" fill-opacity="0.05"/>
<path d="M195 166.854C196.024 166.854 196.854 166.024 196.854 165C196.854 163.976 196.024 163.146 195 163.146C193.976 163.146 193.146 163.976 193.146 165C193.146 166.024 193.976 166.854 195 166.854Z" fill="#223AA3" fill-opacity="0.05"/>
<path d="M195 177.018C196.115 177.018 197.018 176.115 197.018 175C197.018 173.885 196.115 172.982 195 172.982C193.885 172.982 192.982 173.885 192.982 175C192.982 176.115 193.885 177.018 195 177.018Z" fill="#223AA3" fill-opacity="0.05"/>
<path d="M195 187.285C196.262 187.285 197.285 186.262 197.285 185C197.285 183.738 196.262 182.715 195 182.715C193.738 182.715 192.715 183.738 192.715 185C192.715 186.262 193.738 187.285 195 187.285Z" fill="#223AA3" fill-opacity="0.05"/>
<path d="M195 197.571C196.42 197.571 197.571 196.42 197.571 195C197.571 193.58 196.42 192.429 195 192.429C193.58 192.429 192.428 193.58 192.428 195C192.428 196.42 193.58 197.571 195 197.571Z" fill="#223AA3" fill-opacity="0.05"/>
</svg>
